<?xml version="1.0" encoding="UTF-8"?>
<svg xmlns="http://www.w3.org/2000/svg" xmlns:xlink="http://www.w3.org/1999/xlink" width="375pt" height="374.999991pt" viewBox="0 0 375 374.999991" version="1.2">
<defs>
<clipPath id="clip1">
  <path d="M 193 100.203125 L 261 100.203125 L 261 166 L 193 166 Z M 193 100.203125 "/>
</clipPath>
<clipPath id="clip2">
  <path d="M 121.105469 110 L 187 110 L 187 178 L 121.105469 178 Z M 121.105469 110 "/>
</clipPath>
<clipPath id="clip3">
  <path d="M 131 184 L 199 184 L 199 250.203125 L 131 250.203125 Z M 131 184 "/>
</clipPath>
<clipPath id="clip4">
  <path d="M 205 172 L 271.105469 172 L 271.105469 241 L 205 241 Z M 205 172 "/>
</clipPath>
</defs>
<g id="surface1">
<g clip-path="url(#clip1)" clip-rule="nonzero">
<path style=" stroke:none;fill-rule:nonzero;fill:rgb(54.508972%,81.959534%,93.728638%);fill-opacity:1;" d="M 202.578125 114.972656 C 229.597656 117.804688 251.542969 138.164062 255.941406 165.507812 L 260.925781 164.699219 C 256.101562 134.683594 231.746094 112.398438 201.945312 109.804688 L 207.992188 103.757812 L 204.421875 100.1875 L 194.320312 110.289062 C 193.335938 111.273438 193.335938 112.871094 194.320312 113.859375 L 204.421875 123.960938 L 207.992188 120.390625 L 202.578125 114.972656 "/>
</g>
<g clip-path="url(#clip2)" clip-rule="nonzero">
<path style=" stroke:none;fill-rule:nonzero;fill:rgb(54.508972%,81.959534%,93.728638%);fill-opacity:1;" d="M 134.761719 176.992188 L 144.863281 166.890625 L 141.289062 163.320312 L 135.875 168.734375 C 138.707031 141.714844 159.066406 119.769531 186.410156 115.367188 L 185.601562 110.386719 C 155.585938 115.210938 133.300781 139.566406 130.707031 169.367188 L 124.660156 163.320312 L 121.089844 166.890625 L 131.191406 176.992188 C 131.683594 177.484375 132.324219 177.730469 132.976562 177.730469 C 133.625 177.730469 134.265625 177.484375 134.761719 176.992188 "/>
</g>
<g clip-path="url(#clip3)" clip-rule="nonzero">
<path style=" stroke:none;fill-rule:nonzero;fill:rgb(54.508972%,81.959534%,93.728638%);fill-opacity:1;" d="M 187.789062 226.449219 L 184.21875 230.019531 L 189.636719 235.4375 C 162.617188 232.605469 140.667969 212.246094 136.269531 184.902344 L 131.289062 185.710938 C 136.113281 215.726562 160.46875 238.011719 190.265625 240.605469 L 184.21875 246.652344 L 187.789062 250.222656 L 197.890625 240.121094 C 198.878906 239.136719 198.878906 237.539062 197.890625 236.550781 L 187.789062 226.449219 "/>
</g>
<g clip-path="url(#clip4)" clip-rule="nonzero">
<path style=" stroke:none;fill-rule:nonzero;fill:rgb(54.508972%,81.959534%,93.728638%);fill-opacity:1;" d="M 271.125 183.519531 L 261.023438 173.417969 C 260.035156 172.433594 258.4375 172.433594 257.453125 173.417969 L 247.351562 183.519531 L 250.921875 187.089844 L 256.335938 181.675781 C 253.507812 208.695312 233.148438 230.640625 205.804688 235.042969 L 206.613281 240.023438 C 236.628906 235.199219 258.914062 210.84375 261.507812 181.042969 L 267.554688 187.089844 L 271.125 183.519531 "/>
</g>
<path style=" stroke:none;fill-rule:nonzero;fill:rgb(25.099182%,46.669006%,76.858521%);fill-opacity:1;" d="M 196.105469 197.933594 C 183.558594 197.933594 173.378906 187.753906 173.378906 175.203125 C 173.378906 162.65625 183.558594 152.476562 196.105469 152.476562 C 208.652344 152.476562 218.832031 162.65625 218.832031 175.203125 C 218.832031 187.753906 208.652344 197.933594 196.105469 197.933594 Z M 240.308594 179.632812 C 240.308594 174.820312 240.308594 175.589844 240.308594 170.777344 L 229.84375 168.328125 C 228.785156 165.085938 228.5 164.1875 227.433594 160.929688 L 234.46875 152.804688 C 231.648438 148.917969 232.089844 149.527344 229.261719 145.640625 L 219.367188 149.8125 C 216.59375 147.800781 215.835938 147.25 213.074219 145.246094 L 213.972656 134.535156 C 209.402344 133.046875 210.125 133.28125 205.554688 131.800781 L 199.992188 140.996094 C 196.578125 140.996094 195.632812 140.996094 192.21875 140.996094 L 186.65625 131.800781 C 182.089844 133.28125 182.808594 133.046875 178.242188 134.535156 L 179.140625 145.246094 C 176.378906 147.25 175.617188 147.800781 172.847656 149.8125 L 162.953125 145.640625 C 160.121094 149.527344 160.566406 148.917969 157.746094 152.804688 L 164.777344 160.929688 C 163.710938 164.1875 163.425781 165.085938 162.371094 168.328125 L 151.90625 170.777344 C 151.90625 175.589844 151.90625 174.820312 151.90625 179.632812 L 162.371094 182.082031 C 163.425781 185.324219 163.710938 186.222656 164.777344 189.476562 L 157.746094 197.605469 C 160.566406 201.492188 160.121094 200.871094 162.953125 204.769531 L 172.847656 200.59375 C 175.617188 202.609375 176.378906 203.160156 179.140625 205.164062 L 178.242188 215.875 C 182.808594 217.363281 182.089844 217.128906 186.65625 218.609375 L 192.21875 209.414062 C 195.632812 209.414062 196.578125 209.414062 199.992188 209.414062 L 205.554688 218.609375 C 210.125 217.128906 209.402344 217.363281 213.972656 215.875 L 213.074219 205.164062 C 215.835938 203.160156 216.59375 202.609375 219.367188 200.59375 L 229.261719 204.769531 C 232.089844 200.871094 231.648438 201.492188 234.46875 197.605469 L 227.433594 189.476562 C 228.5 186.222656 228.785156 185.324219 229.84375 182.082031 L 240.308594 179.632812 "/>
<path style=" stroke:none;fill-rule:nonzero;fill:rgb(21.569824%,25.099182%,30.589294%);fill-opacity:1;" d="M 221.695312 246.523438 L 219.996094 241.769531 C 221.554688 241.207031 223.105469 240.59375 224.59375 239.933594 L 226.625 244.5625 C 225.027344 245.261719 223.371094 245.921875 221.695312 246.523438 "/>
<path style=" stroke:none;fill-rule:nonzero;fill:rgb(21.569824%,25.099182%,30.589294%);fill-opacity:1;" d="M 231.46875 242.222656 L 229.121094 237.753906 C 245.191406 229.28125 257.265625 215.097656 263.113281 197.824219 L 267.898438 199.441406 C 261.625 217.945312 248.691406 233.148438 231.46875 242.222656 "/>
<path style=" stroke:none;fill-rule:nonzero;fill:rgb(21.569824%,25.099182%,30.589294%);fill-opacity:1;" d="M 167.617188 110.476562 L 165.585938 105.847656 C 167.183594 105.148438 168.839844 104.488281 170.519531 103.886719 L 172.214844 108.640625 C 170.65625 109.203125 169.109375 109.816406 167.617188 110.476562 "/>
<path style=" stroke:none;fill-rule:nonzero;fill:rgb(21.569824%,25.099182%,30.589294%);fill-opacity:1;" d="M 129.097656 152.585938 L 124.3125 150.96875 C 130.589844 132.464844 143.519531 117.261719 160.742188 108.1875 L 163.089844 112.65625 C 147.023438 121.128906 134.949219 135.3125 129.097656 152.585938 "/>
<path style=" stroke:none;fill-rule:nonzero;fill:rgb(31.759644%,68.238831%,89.7995%);fill-opacity:1;" d="M 198.632812 177.730469 L 193.582031 177.730469 L 193.582031 172.679688 L 198.632812 172.679688 L 198.632812 177.730469 "/>
<path style=" stroke:none;fill-rule:nonzero;fill:rgb(31.759644%,68.238831%,89.7995%);fill-opacity:1;" d="M 208.734375 177.730469 L 203.683594 177.730469 L 203.683594 172.679688 L 208.734375 172.679688 L 208.734375 177.730469 "/>
<path style=" stroke:none;fill-rule:nonzero;fill:rgb(31.759644%,68.238831%,89.7995%);fill-opacity:1;" d="M 188.53125 177.730469 L 183.480469 177.730469 L 183.480469 172.679688 L 188.53125 172.679688 L 188.53125 177.730469 "/>
</g>
</svg>
