<?xml version="1.0" encoding="UTF-8"?>
<svg xmlns="http://www.w3.org/2000/svg" xmlns:xlink="http://www.w3.org/1999/xlink" width="375pt" height="374.999991pt" viewBox="0 0 375 374.999991" version="1.2">
<defs>
<clipPath id="clip1">
  <path d="M 25 209 L 192 209 L 192 371.25 L 25 371.25 Z M 25 209 "/>
</clipPath>
<clipPath id="clip2">
  <path d="M 209 179 L 371.25 179 L 371.25 347 L 209 347 Z M 209 179 "/>
</clipPath>
</defs>
<g id="surface1">
<path style=" stroke:none;fill-rule:nonzero;fill:rgb(54.508972%,81.959534%,93.728638%);fill-opacity:1;" d="M 201.640625 36.554688 C 268.511719 43.558594 322.832031 93.949219 333.71875 161.625 L 346.050781 159.625 C 334.109375 85.332031 273.832031 30.179688 200.078125 23.757812 L 215.042969 8.792969 L 206.207031 -0.0429688 L 181.207031 24.957031 C 178.765625 27.398438 178.765625 31.351562 181.207031 33.792969 L 206.207031 58.792969 L 215.042969 49.957031 L 201.640625 36.554688 "/>
<path style=" stroke:none;fill-rule:nonzero;fill:rgb(54.508972%,81.959534%,93.728638%);fill-opacity:1;" d="M 33.792969 190.042969 L 58.792969 165.042969 L 49.957031 156.207031 L 36.554688 169.609375 C 43.558594 102.738281 93.949219 48.417969 161.625 37.53125 L 159.625 25.199219 C 85.332031 37.140625 30.179688 97.417969 23.757812 171.171875 L 8.792969 156.207031 L -0.0429688 165.042969 L 24.957031 190.042969 C 26.175781 191.265625 27.765625 191.875 29.375 191.875 C 30.984375 191.875 32.574219 191.265625 33.792969 190.042969 "/>
<g clip-path="url(#clip1)" clip-rule="nonzero">
<path style=" stroke:none;fill-rule:nonzero;fill:rgb(54.508972%,81.959534%,93.728638%);fill-opacity:1;" d="M 165.042969 312.457031 L 156.207031 321.292969 L 169.609375 334.695312 C 102.738281 327.691406 48.417969 277.300781 37.53125 209.625 L 25.199219 211.625 C 37.140625 285.917969 97.417969 341.070312 171.171875 347.488281 L 156.207031 362.457031 L 165.042969 371.292969 L 190.042969 346.292969 C 192.484375 343.851562 192.484375 339.898438 190.042969 337.457031 L 165.042969 312.457031 "/>
</g>
<g clip-path="url(#clip2)" clip-rule="nonzero">
<path style=" stroke:none;fill-rule:nonzero;fill:rgb(54.508972%,81.959534%,93.728638%);fill-opacity:1;" d="M 371.292969 206.207031 L 346.292969 181.207031 C 343.851562 178.765625 339.898438 178.765625 337.457031 181.207031 L 312.457031 206.207031 L 321.292969 215.042969 L 334.695312 201.640625 C 327.691406 268.511719 277.300781 322.832031 209.625 333.71875 L 211.625 346.050781 C 285.917969 334.109375 341.070312 273.832031 347.488281 200.078125 L 362.457031 215.042969 L 371.292969 206.207031 "/>
</g>
<path style=" stroke:none;fill-rule:nonzero;fill:rgb(25.099182%,46.669006%,76.858521%);fill-opacity:1;" d="M 185.625 241.875 C 154.570312 241.875 129.375 216.679688 129.375 185.625 C 129.375 154.570312 154.570312 129.375 185.625 129.375 C 216.679688 129.375 241.875 154.570312 241.875 185.625 C 241.875 216.679688 216.679688 241.875 185.625 241.875 Z M 295.023438 196.585938 C 295.023438 184.671875 295.023438 186.578125 295.023438 174.664062 L 269.121094 168.609375 C 266.507812 160.574219 265.800781 158.355469 263.164062 150.296875 L 280.570312 130.179688 C 273.589844 120.5625 274.6875 122.074219 267.679688 112.457031 L 243.191406 122.78125 C 236.332031 117.800781 234.453125 116.433594 227.617188 111.480469 L 229.839844 84.964844 C 218.535156 81.277344 220.316406 81.863281 209.011719 78.203125 L 195.242188 100.957031 C 186.796875 100.957031 184.453125 100.957031 176.003906 100.957031 L 162.234375 78.203125 C 150.933594 81.863281 152.714844 81.277344 141.410156 84.964844 L 143.632812 111.480469 C 136.796875 116.433594 134.917969 117.800781 128.054688 122.78125 L 103.570312 112.457031 C 96.5625 122.074219 97.660156 120.5625 90.679688 130.179688 L 108.085938 150.296875 C 105.449219 158.355469 104.742188 160.574219 102.128906 168.609375 L 76.226562 174.664062 C 76.226562 186.578125 76.226562 184.671875 76.226562 196.585938 L 102.128906 202.640625 C 104.742188 210.671875 105.449219 212.894531 108.085938 220.953125 L 90.679688 241.070312 C 97.660156 250.6875 96.5625 249.148438 103.570312 258.792969 L 128.054688 248.464844 C 134.917969 253.445312 136.796875 254.8125 143.632812 259.769531 L 141.410156 286.285156 C 152.714844 289.96875 150.933594 289.382812 162.234375 293.046875 L 176.003906 270.292969 C 184.453125 270.292969 186.796875 270.292969 195.242188 270.292969 L 209.011719 293.046875 C 220.316406 289.382812 218.535156 289.96875 229.839844 286.285156 L 227.617188 259.769531 C 234.453125 254.8125 236.332031 253.445312 243.191406 248.464844 L 267.679688 258.792969 C 274.6875 249.148438 273.589844 250.6875 280.570312 241.070312 L 263.164062 220.953125 C 265.800781 212.894531 266.507812 210.671875 269.121094 202.640625 L 295.023438 196.585938 "/>
<path style=" stroke:none;fill-rule:nonzero;fill:rgb(21.569824%,25.099182%,30.589294%);fill-opacity:1;" d="M 248.953125 362.136719 L 244.753906 350.371094 C 248.613281 348.980469 252.445312 347.464844 256.132812 345.828125 L 261.160156 357.28125 C 257.207031 359.011719 253.105469 360.648438 248.953125 362.136719 "/>
<path style=" stroke:none;fill-rule:nonzero;fill:rgb(21.569824%,25.099182%,30.589294%);fill-opacity:1;" d="M 273.148438 351.492188 L 267.339844 340.433594 C 307.109375 319.460938 336.992188 284.355469 351.46875 241.605469 L 363.308594 245.609375 C 347.78125 291.410156 315.777344 329.03125 273.148438 351.492188 "/>
<path style=" stroke:none;fill-rule:nonzero;fill:rgb(21.569824%,25.099182%,30.589294%);fill-opacity:1;" d="M 115.117188 25.421875 L 110.085938 13.96875 C 114.042969 12.234375 118.144531 10.601562 122.292969 9.109375 L 126.492188 20.878906 C 122.636719 22.269531 118.804688 23.785156 115.117188 25.421875 "/>
<path style=" stroke:none;fill-rule:nonzero;fill:rgb(21.569824%,25.099182%,30.589294%);fill-opacity:1;" d="M 19.78125 129.644531 L 7.941406 125.640625 C 23.46875 79.839844 55.472656 42.21875 98.101562 19.757812 L 103.910156 30.816406 C 64.140625 51.785156 34.257812 86.894531 19.78125 129.644531 "/>
<path style=" stroke:none;fill-rule:nonzero;fill:rgb(31.759644%,68.238831%,89.7995%);fill-opacity:1;" d="M 191.875 191.875 L 179.375 191.875 L 179.375 179.375 L 191.875 179.375 L 191.875 191.875 "/>
<path style=" stroke:none;fill-rule:nonzero;fill:rgb(31.759644%,68.238831%,89.7995%);fill-opacity:1;" d="M 216.875 191.875 L 204.375 191.875 L 204.375 179.375 L 216.875 179.375 L 216.875 191.875 "/>
<path style=" stroke:none;fill-rule:nonzero;fill:rgb(31.759644%,68.238831%,89.7995%);fill-opacity:1;" d="M 166.875 191.875 L 154.375 191.875 L 154.375 179.375 L 166.875 179.375 L 166.875 191.875 "/>
</g>
</svg>
