<?xml version="1.0" encoding="UTF-8"?>
<svg xmlns="http://www.w3.org/2000/svg" xmlns:xlink="http://www.w3.org/1999/xlink" width="375pt" height="374.999991pt" viewBox="0 0 375 374.999991" version="1.2">
<defs>
<clipPath id="clip1">
  <path d="M 135 218 L 171 218 L 171 251.214844 L 135 251.214844 Z M 135 218 "/>
</clipPath>
<clipPath id="clip2">
  <path d="M 218 143.238281 L 241 143.238281 L 241 167 L 218 167 Z M 218 143.238281 "/>
</clipPath>
</defs>
<g id="surface1">
<g clip-path="url(#clip1)" clip-rule="nonzero">
<path style=" stroke:none;fill-rule:nonzero;fill:rgb(21.569824%,25.099182%,30.589294%);fill-opacity:1;" d="M 154.410156 218.460938 C 154.410156 218.460938 140.304688 218.035156 138.597656 228.28125 C 138.597656 228.28125 140.625 229.828125 146.769531 229.71875 C 146.769531 229.71875 134.039062 239.019531 135.675781 250.195312 C 135.675781 250.195312 145.222656 250.976562 154.765625 241.300781 C 154.765625 241.300781 150.992188 246.777344 149.210938 251.1875 C 149.210938 251.1875 170.753906 248.023438 170.011719 226.570312 C 170.011719 226.570312 165.308594 234.578125 162.957031 235.320312 C 162.957031 235.320312 165.09375 230.519531 163.597656 227 C 163.597656 227 158.792969 234.683594 153.125 233.613281 C 153.125 233.613281 152.488281 229.984375 158.792969 224.652344 C 158.792969 224.652344 153.34375 225.078125 152.0625 224.117188 C 152.0625 224.117188 151.953125 221.128906 155.585938 218.78125 L 154.410156 218.460938 "/>
</g>
<path style=" stroke:none;fill-rule:nonzero;fill:rgb(25.099182%,46.669006%,76.858521%);fill-opacity:1;" d="M 209.0625 176.402344 C 205.394531 172.847656 205.304688 166.988281 208.863281 163.324219 C 212.425781 159.65625 218.289062 159.566406 221.957031 163.121094 C 225.628906 166.679688 225.722656 172.535156 222.15625 176.203125 C 218.597656 179.867188 212.734375 179.957031 209.0625 176.402344 Z M 231.472656 181.316406 C 231.472656 181.316406 234.804688 176.125 237.484375 168.527344 L 215.945312 147.441406 C 208.792969 150.539062 200.269531 155.878906 190.664062 164.863281 C 190.664062 164.863281 170.898438 182.609375 162.109375 205.253906 L 169.070312 211.957031 C 171.476562 209.308594 174.132812 206.484375 176.917969 203.617188 C 182.359375 198.007812 187.65625 192.898438 191.816406 189.222656 C 193.871094 187.402344 195.554688 186.023438 196.816406 185.125 C 198 184.273438 199.980469 182.855469 201.433594 184.261719 C 202.882812 185.667969 201.523438 187.6875 200.710938 188.894531 C 199.847656 190.1875 198.519531 191.90625 196.761719 194.015625 C 193.210938 198.28125 188.253906 203.722656 182.808594 209.324219 C 180.035156 212.1875 177.292969 214.921875 174.726562 217.398438 L 181.671875 224.089844 C 181.671875 224.089844 212.945312 209.921875 231.472656 181.316406 "/>
<g clip-path="url(#clip2)" clip-rule="nonzero">
<path style=" stroke:none;fill-rule:nonzero;fill:rgb(25.099182%,46.669006%,76.858521%);fill-opacity:1;" d="M 238.277344 166.148438 L 218.214844 146.515625 C 225.984375 143.527344 231.953125 143.21875 235.722656 143.53125 C 238.476562 143.757812 240.628906 145.996094 240.765625 148.757812 C 241.066406 154.941406 239.890625 160.988281 238.277344 166.148438 "/>
</g>
<path style=" stroke:none;fill-rule:nonzero;fill:rgb(21.569824%,25.099182%,30.589294%);fill-opacity:1;" d="M 174.5625 180.304688 C 171.53125 184.308594 168.273438 189.089844 165.367188 194.375 C 161.09375 194.246094 149.75 194.917969 142.253906 204.621094 C 142.253906 204.621094 145.488281 181.273438 174.5625 180.304688 "/>
<path style=" stroke:none;fill-rule:nonzero;fill:rgb(21.569824%,25.099182%,30.589294%);fill-opacity:1;" d="M 182.867188 244.707031 C 182.867188 244.707031 193.464844 235.394531 192.378906 220.183594 C 194.824219 218.699219 197.605469 216.914062 200.597656 214.8125 C 202.339844 213.582031 204.21875 212.203125 206.1875 210.675781 C 206.59375 216.945312 205.925781 236.527344 182.867188 244.707031 "/>
<path style=" stroke:none;fill-rule:nonzero;fill:rgb(25.099182%,46.669006%,76.858521%);fill-opacity:1;" d="M 167.730469 213.441406 C 166.644531 214.652344 165.621094 215.816406 164.667969 216.921875 L 157.257812 209.738281 C 156.367188 208.878906 156.34375 207.441406 157.207031 206.554688 L 157.296875 206.46875 C 158.15625 205.582031 159.589844 205.558594 160.480469 206.417969 L 167.730469 213.441406 "/>
<path style=" stroke:none;fill-rule:nonzero;fill:rgb(25.099182%,46.669006%,76.858521%);fill-opacity:1;" d="M 180.554688 229.007812 L 180.46875 229.097656 C 179.605469 229.984375 178.175781 230.007812 177.28125 229.144531 L 169.875 221.964844 C 170.949219 220.976562 172.085938 219.925781 173.261719 218.804688 L 180.507812 225.824219 C 181.398438 226.6875 181.417969 228.121094 180.554688 229.007812 "/>
<path style=" stroke:none;fill-rule:nonzero;fill:rgb(21.569824%,25.099182%,30.589294%);fill-opacity:1;" d="M 200.125 185.609375 C 199.242188 184.753906 189.457031 193.398438 178.269531 204.921875 C 167.078125 216.445312 158.722656 226.480469 159.605469 227.335938 C 160.488281 228.191406 170.277344 219.542969 181.464844 208.023438 C 192.652344 196.5 201.003906 186.464844 200.125 185.609375 "/>
<path style=" stroke:none;fill-rule:nonzero;fill:rgb(21.569824%,25.099182%,30.589294%);fill-opacity:1;" d="M 219.925781 165.214844 C 217.414062 162.777344 213.398438 162.839844 210.957031 165.351562 C 208.519531 167.863281 208.582031 171.875 211.09375 174.308594 C 213.609375 176.746094 217.625 176.683594 220.0625 174.171875 C 222.503906 171.660156 222.441406 167.648438 219.925781 165.214844 "/>
</g>
</svg>
