<?xml version="1.0" encoding="UTF-8"?>
<svg xmlns="http://www.w3.org/2000/svg" xmlns:xlink="http://www.w3.org/1999/xlink" width="375pt" height="374.999991pt" viewBox="0 0 375 374.999991" version="1.2">
<g id="surface1">
<path style=" stroke:none;fill-rule:nonzero;fill:rgb(21.569824%,25.099182%,30.589294%);fill-opacity:1;" d="M 71.109375 261.246094 C 71.109375 261.246094 22.234375 259.765625 16.316406 295.347656 C 16.316406 295.347656 23.34375 300.71875 44.636719 300.351562 C 44.636719 300.351562 0.515625 332.652344 6.195312 371.457031 C 6.195312 371.457031 39.269531 374.171875 72.34375 340.566406 C 72.34375 340.566406 59.269531 359.589844 53.09375 374.910156 C 53.09375 374.910156 127.765625 363.921875 125.179688 289.410156 C 125.179688 289.410156 108.882812 317.21875 100.734375 319.804688 C 100.734375 319.804688 108.144531 303.125 102.953125 290.902344 C 102.953125 290.902344 86.296875 317.585938 66.667969 313.878906 C 66.667969 313.878906 64.453125 301.273438 86.296875 282.746094 C 86.296875 282.746094 67.417969 284.222656 62.972656 280.894531 C 62.972656 280.894531 62.59375 270.511719 75.183594 262.355469 L 71.109375 261.246094 "/>
<path style=" stroke:none;fill-rule:nonzero;fill:rgb(25.099182%,46.669006%,76.858521%);fill-opacity:1;" d="M 260.527344 115.175781 C 247.8125 102.828125 247.5 82.484375 259.835938 69.753906 C 272.171875 57.023438 292.496094 56.710938 305.214844 69.058594 C 317.933594 81.410156 318.253906 101.753906 305.90625 114.484375 C 293.570312 127.214844 273.246094 127.527344 260.527344 115.175781 Z M 338.1875 132.242188 C 338.1875 132.242188 349.738281 114.21875 359.027344 87.832031 L 284.382812 14.601562 C 259.59375 25.359375 230.050781 43.898438 196.753906 75.101562 C 196.753906 75.101562 128.261719 136.734375 97.792969 215.382812 L 121.925781 238.660156 C 130.257812 229.464844 139.464844 219.65625 149.125 209.699219 C 167.984375 190.222656 186.332031 172.464844 200.746094 159.699219 C 207.867188 153.382812 213.707031 148.597656 218.082031 145.46875 C 222.179688 142.523438 229.046875 137.589844 234.078125 142.476562 C 239.109375 147.363281 234.402344 154.375 231.585938 158.566406 C 228.585938 163.050781 223.980469 169.023438 217.898438 176.347656 C 205.582031 191.167969 188.410156 210.058594 169.542969 229.523438 C 159.917969 239.457031 150.417969 248.953125 141.519531 257.5625 L 165.59375 280.792969 C 165.59375 280.792969 273.972656 231.589844 338.1875 132.242188 "/>
<path style=" stroke:none;fill-rule:nonzero;fill:rgb(25.099182%,46.669006%,76.858521%);fill-opacity:1;" d="M 361.777344 79.574219 L 292.242188 11.378906 C 319.167969 1.003906 339.859375 -0.0703125 352.914062 1.015625 C 362.46875 1.800781 369.921875 9.578125 370.398438 19.164062 C 371.433594 40.652344 367.363281 61.644531 361.777344 79.574219 "/>
<path style=" stroke:none;fill-rule:nonzero;fill:rgb(21.569824%,25.099182%,30.589294%);fill-opacity:1;" d="M 140.953125 128.726562 C 130.453125 142.636719 119.15625 159.25 109.089844 177.59375 C 94.285156 177.15625 54.964844 179.488281 28.988281 213.175781 C 28.988281 213.175781 40.191406 132.101562 140.953125 128.726562 "/>
<path style=" stroke:none;fill-rule:nonzero;fill:rgb(21.569824%,25.099182%,30.589294%);fill-opacity:1;" d="M 169.738281 352.394531 C 169.738281 352.394531 206.472656 320.058594 202.699219 267.230469 C 211.179688 262.078125 220.816406 255.875 231.179688 248.574219 C 237.226562 244.308594 243.738281 239.515625 250.558594 234.214844 C 251.964844 255.976562 249.65625 324 169.738281 352.394531 "/>
<path style=" stroke:none;fill-rule:nonzero;fill:rgb(25.099182%,46.669006%,76.858521%);fill-opacity:1;" d="M 117.273438 243.8125 C 113.511719 248.019531 109.96875 252.0625 106.667969 255.898438 L 80.976562 230.957031 C 77.894531 227.964844 77.816406 222.984375 80.804688 219.898438 L 81.117188 219.597656 C 84.09375 216.515625 89.066406 216.433594 92.148438 219.425781 L 117.273438 243.8125 "/>
<path style=" stroke:none;fill-rule:nonzero;fill:rgb(25.099182%,46.669006%,76.858521%);fill-opacity:1;" d="M 161.726562 297.878906 L 161.429688 298.191406 C 158.4375 301.261719 153.476562 301.34375 150.382812 298.351562 L 124.707031 273.421875 C 128.433594 269.992188 132.367188 266.328125 136.441406 262.4375 L 161.566406 286.824219 C 164.648438 289.816406 164.71875 294.792969 161.726562 297.878906 "/>
<path style=" stroke:none;fill-rule:nonzero;fill:rgb(21.569824%,25.099182%,30.589294%);fill-opacity:1;" d="M 229.542969 147.15625 C 226.484375 144.183594 192.578125 174.210938 153.800781 214.226562 C 115.023438 254.246094 86.066406 289.097656 89.125 292.066406 C 92.183594 295.035156 126.101562 265 164.878906 224.996094 C 203.65625 184.976562 232.601562 150.125 229.542969 147.15625 "/>
<path style=" stroke:none;fill-rule:nonzero;fill:rgb(21.569824%,25.099182%,30.589294%);fill-opacity:1;" d="M 298.175781 76.328125 C 289.460938 67.859375 275.554688 68.078125 267.09375 76.800781 C 258.648438 85.523438 258.855469 99.453125 267.570312 107.910156 C 276.28125 116.367188 290.199219 116.160156 298.648438 107.4375 C 307.105469 98.714844 306.886719 84.78125 298.175781 76.328125 "/>
</g>
</svg>
