<?xml version="1.0" encoding="UTF-8"?>
<svg xmlns="http://www.w3.org/2000/svg" xmlns:xlink="http://www.w3.org/1999/xlink" width="375pt" height="374.999991pt" viewBox="0 0 375 374.999991" version="1.2">
<g id="surface1">
<path style=" stroke:none;fill-rule:nonzero;fill:rgb(21.569824%,25.099182%,30.589294%);fill-opacity:1;" d="M 210.9375 52.726562 L 164.0625 52.726562 L 175.78125 -0.0078125 L 199.21875 -0.0078125 Z M 210.9375 52.726562 "/>
<path style=" stroke:none;fill-rule:nonzero;fill:rgb(21.569824%,25.099182%,30.589294%);fill-opacity:1;" d="M 140.40625 59.066406 L 99.8125 82.503906 L 83.601562 30.972656 L 103.886719 19.253906 Z M 140.40625 59.066406 "/>
<path style=" stroke:none;fill-rule:nonzero;fill:rgb(21.569824%,25.099182%,30.589294%);fill-opacity:1;" d="M 82.5 99.8125 L 59.0625 140.414062 L 19.261719 103.894531 L 30.96875 83.605469 Z M 82.5 99.8125 "/>
<path style=" stroke:none;fill-rule:nonzero;fill:rgb(21.569824%,25.099182%,30.589294%);fill-opacity:1;" d="M 52.734375 164.054688 L 52.722656 210.941406 L 0 199.21875 L -0.0117188 175.785156 Z M 52.734375 164.054688 "/>
<path style=" stroke:none;fill-rule:nonzero;fill:rgb(21.569824%,25.099182%,30.589294%);fill-opacity:1;" d="M 59.0625 234.585938 L 82.5 275.191406 L 30.980469 291.390625 L 19.261719 271.105469 Z M 59.0625 234.585938 "/>
<path style=" stroke:none;fill-rule:nonzero;fill:rgb(21.569824%,25.099182%,30.589294%);fill-opacity:1;" d="M 99.8125 292.492188 L 140.417969 315.9375 L 103.898438 355.734375 L 83.601562 344.027344 Z M 99.8125 292.492188 "/>
<path style=" stroke:none;fill-rule:nonzero;fill:rgb(21.569824%,25.099182%,30.589294%);fill-opacity:1;" d="M 164.0625 322.269531 L 210.949219 322.269531 L 199.21875 374.992188 L 175.78125 375.003906 Z M 164.0625 322.269531 "/>
<path style=" stroke:none;fill-rule:nonzero;fill:rgb(21.569824%,25.099182%,30.589294%);fill-opacity:1;" d="M 234.589844 315.929688 L 275.195312 292.492188 L 291.386719 344.015625 L 271.113281 355.746094 Z M 234.589844 315.929688 "/>
<path style=" stroke:none;fill-rule:nonzero;fill:rgb(21.569824%,25.099182%,30.589294%);fill-opacity:1;" d="M 292.5 275.179688 L 315.949219 234.578125 L 355.726562 271.101562 L 344.03125 291.398438 Z M 292.5 275.179688 "/>
<path style=" stroke:none;fill-rule:nonzero;fill:rgb(21.569824%,25.099182%,30.589294%);fill-opacity:1;" d="M 322.265625 210.929688 L 322.277344 164.050781 L 374.988281 175.78125 L 375.011719 199.210938 Z M 322.265625 210.929688 "/>
<path style=" stroke:none;fill-rule:nonzero;fill:rgb(21.569824%,25.099182%,30.589294%);fill-opacity:1;" d="M 315.925781 140.40625 L 292.5 99.804688 L 344.007812 83.605469 L 355.738281 103.894531 Z M 315.925781 140.40625 "/>
<path style=" stroke:none;fill-rule:nonzero;fill:rgb(21.569824%,25.099182%,30.589294%);fill-opacity:1;" d="M 275.171875 82.5 L 234.578125 59.058594 L 271.101562 19.265625 L 291.398438 30.972656 Z M 275.171875 82.5 "/>
<path style=" stroke:none;fill-rule:nonzero;fill:rgb(25.099182%,46.669006%,76.858521%);fill-opacity:1;" d="M 339.84375 187.492188 C 339.84375 271.609375 271.632812 339.835938 187.5 339.835938 C 103.363281 339.835938 35.15625 271.609375 35.15625 187.492188 C 35.15625 103.359375 103.363281 35.152344 187.5 35.152344 C 271.632812 35.152344 339.84375 103.359375 339.84375 187.492188 Z M 339.84375 187.492188 "/>
<path style=" stroke:none;fill-rule:nonzero;fill:rgb(100%,100%,100%);fill-opacity:1;" d="M 316.40625 187.484375 C 316.40625 189.59375 316.355469 191.699219 316.25 193.808594 C 316.148438 195.914062 315.992188 198.019531 315.785156 200.117188 C 315.578125 202.21875 315.320312 204.308594 315.011719 206.398438 C 314.703125 208.484375 314.339844 210.5625 313.929688 212.628906 C 313.519531 214.699219 313.054688 216.757812 312.542969 218.804688 C 312.03125 220.851562 311.46875 222.882812 310.855469 224.902344 C 310.242188 226.921875 309.582031 228.921875 308.871094 230.910156 C 308.160156 232.894531 307.402344 234.863281 306.59375 236.8125 C 305.785156 238.761719 304.933594 240.691406 304.03125 242.597656 C 303.128906 244.503906 302.179688 246.386719 301.183594 248.25 C 300.191406 250.109375 299.152344 251.945312 298.066406 253.753906 C 296.980469 255.5625 295.855469 257.34375 294.679688 259.097656 C 293.507812 260.851562 292.296875 262.578125 291.039062 264.273438 C 289.78125 265.964844 288.484375 267.628906 287.144531 269.257812 C 285.808594 270.890625 284.429688 272.488281 283.011719 274.050781 C 281.597656 275.613281 280.140625 277.140625 278.652344 278.632812 C 277.160156 280.125 275.632812 281.578125 274.066406 282.996094 C 272.503906 284.414062 270.90625 285.789062 269.277344 287.128906 C 267.644531 288.464844 265.984375 289.765625 264.289062 291.019531 C 262.59375 292.277344 260.871094 293.492188 259.117188 294.664062 C 257.363281 295.835938 255.582031 296.964844 253.769531 298.050781 C 251.960938 299.132812 250.125 300.171875 248.265625 301.167969 C 246.40625 302.160156 244.523438 303.109375 242.613281 304.011719 C 240.707031 304.914062 238.777344 305.769531 236.832031 306.578125 C 234.882812 307.382812 232.914062 308.144531 230.925781 308.851562 C 228.941406 309.5625 226.9375 310.226562 224.917969 310.839844 C 222.902344 311.449219 220.867188 312.011719 218.820312 312.527344 C 216.773438 313.039062 214.71875 313.5 212.648438 313.910156 C 210.578125 314.324219 208.5 314.683594 206.414062 314.992188 C 204.328125 315.304688 202.234375 315.5625 200.136719 315.769531 C 198.035156 315.976562 195.933594 316.128906 193.824219 316.234375 C 191.71875 316.335938 189.609375 316.386719 187.5 316.386719 C 185.390625 316.386719 183.28125 316.335938 181.175781 316.234375 C 179.066406 316.128906 176.964844 315.976562 174.863281 315.769531 C 172.765625 315.5625 170.671875 315.304688 168.585938 314.992188 C 166.5 314.683594 164.421875 314.324219 162.351562 313.910156 C 160.28125 313.5 158.226562 313.039062 156.179688 312.527344 C 154.132812 312.011719 152.097656 311.449219 150.082031 310.839844 C 148.0625 310.226562 146.058594 309.5625 144.074219 308.851562 C 142.085938 308.144531 140.117188 307.382812 138.167969 306.578125 C 136.21875 305.769531 134.292969 304.914062 132.386719 304.011719 C 130.476562 303.109375 128.59375 302.160156 126.734375 301.167969 C 124.875 300.171875 123.039062 299.132812 121.230469 298.050781 C 119.417969 296.964844 117.636719 295.835938 115.882812 294.664062 C 114.128906 293.492188 112.40625 292.277344 110.710938 291.019531 C 109.015625 289.765625 107.351562 288.464844 105.722656 287.128906 C 104.09375 285.789062 102.496094 284.414062 100.933594 282.996094 C 99.367188 281.578125 97.839844 280.125 96.347656 278.632812 C 94.859375 277.140625 93.402344 275.613281 91.988281 274.050781 C 90.570312 272.488281 89.191406 270.890625 87.855469 269.257812 C 86.515625 267.628906 85.21875 265.964844 83.960938 264.273438 C 82.703125 262.578125 81.492188 260.851562 80.316406 259.097656 C 79.144531 257.34375 78.019531 255.5625 76.933594 253.753906 C 75.847656 251.945312 74.808594 250.109375 73.816406 248.25 C 72.820312 246.386719 71.871094 244.503906 70.96875 242.597656 C 70.066406 240.691406 69.214844 238.761719 68.40625 236.8125 C 67.597656 234.863281 66.839844 232.894531 66.128906 230.910156 C 65.417969 228.921875 64.757812 226.921875 64.144531 224.902344 C 63.53125 222.882812 62.96875 220.851562 62.457031 218.804688 C 61.945312 216.757812 61.480469 214.699219 61.070312 212.628906 C 60.660156 210.5625 60.296875 208.484375 59.988281 206.398438 C 59.679688 204.308594 59.421875 202.21875 59.214844 200.117188 C 59.007812 198.019531 58.851562 195.914062 58.75 193.808594 C 58.644531 191.699219 58.59375 189.59375 58.59375 187.484375 C 58.59375 185.371094 58.644531 183.265625 58.75 181.15625 C 58.851562 179.050781 59.007812 176.945312 59.214844 174.847656 C 59.421875 172.746094 59.679688 170.65625 59.988281 168.566406 C 60.296875 166.480469 60.660156 164.402344 61.070312 162.335938 C 61.480469 160.265625 61.945312 158.207031 62.457031 156.160156 C 62.96875 154.113281 63.53125 152.082031 64.144531 150.0625 C 64.757812 148.042969 65.417969 146.042969 66.128906 144.054688 C 66.839844 142.070312 67.597656 140.101562 68.40625 138.152344 C 69.214844 136.203125 70.066406 134.273438 70.96875 132.367188 C 71.871094 130.460938 72.820312 128.578125 73.816406 126.714844 C 74.808594 124.855469 75.847656 123.019531 76.933594 121.210938 C 78.019531 119.402344 79.144531 117.621094 80.316406 115.867188 C 81.492188 114.113281 82.703125 112.386719 83.960938 110.691406 C 85.21875 109 86.515625 107.335938 87.855469 105.707031 C 89.191406 104.074219 90.570312 102.476562 91.988281 100.914062 C 93.402344 99.351562 94.859375 97.824219 96.347656 96.332031 C 97.839844 94.839844 99.367188 93.386719 100.933594 91.96875 C 102.496094 90.550781 104.09375 89.175781 105.722656 87.835938 C 107.351562 86.5 109.015625 85.199219 110.710938 83.945312 C 112.40625 82.6875 114.128906 81.472656 115.882812 80.300781 C 117.636719 79.128906 119.417969 78 121.230469 76.914062 C 123.039062 75.832031 124.875 74.792969 126.734375 73.796875 C 128.59375 72.804688 130.476562 71.855469 132.386719 70.953125 C 134.292969 70.050781 136.21875 69.195312 138.167969 68.386719 C 140.117188 67.582031 142.085938 66.820312 144.074219 66.113281 C 146.058594 65.402344 148.0625 64.738281 150.082031 64.125 C 152.097656 63.515625 154.132812 62.953125 156.179688 62.4375 C 158.226562 61.925781 160.28125 61.464844 162.351562 61.054688 C 164.421875 60.640625 166.5 60.28125 168.585938 59.972656 C 170.671875 59.660156 172.765625 59.402344 174.863281 59.195312 C 176.964844 58.988281 179.066406 58.835938 181.175781 58.730469 C 183.28125 58.628906 185.390625 58.574219 187.5 58.574219 C 189.609375 58.574219 191.71875 58.628906 193.824219 58.730469 C 195.933594 58.835938 198.035156 58.988281 200.136719 59.195312 C 202.234375 59.402344 204.328125 59.660156 206.414062 59.972656 C 208.5 60.28125 210.578125 60.640625 212.648438 61.054688 C 214.71875 61.464844 216.773438 61.925781 218.820312 62.4375 C 220.867188 62.953125 222.902344 63.515625 224.917969 64.125 C 226.9375 64.738281 228.941406 65.402344 230.925781 66.113281 C 232.914062 66.820312 234.882812 67.582031 236.832031 68.386719 C 238.777344 69.195312 240.707031 70.050781 242.613281 70.953125 C 244.523438 71.855469 246.40625 72.804688 248.265625 73.796875 C 250.125 74.792969 251.960938 75.832031 253.769531 76.914062 C 255.582031 78 257.363281 79.128906 259.117188 80.300781 C 260.871094 81.472656 262.59375 82.6875 264.289062 83.945312 C 265.984375 85.199219 267.644531 86.5 269.277344 87.835938 C 270.90625 89.175781 272.503906 90.550781 274.066406 91.96875 C 275.632812 93.386719 277.160156 94.839844 278.652344 96.332031 C 280.140625 97.824219 281.597656 99.351562 283.011719 100.914062 C 284.429688 102.476562 285.808594 104.074219 287.144531 105.707031 C 288.484375 107.335938 289.78125 109 291.039062 110.691406 C 292.296875 112.386719 293.507812 114.113281 294.679688 115.867188 C 295.855469 117.621094 296.980469 119.402344 298.066406 121.210938 C 299.152344 123.019531 300.191406 124.855469 301.183594 126.714844 C 302.179688 128.578125 303.128906 130.460938 304.03125 132.367188 C 304.933594 134.273438 305.785156 136.203125 306.59375 138.152344 C 307.402344 140.101562 308.160156 142.070312 308.871094 144.054688 C 309.582031 146.042969 310.242188 148.042969 310.855469 150.0625 C 311.46875 152.082031 312.03125 154.113281 312.542969 156.160156 C 313.054688 158.207031 313.519531 160.265625 313.929688 162.335938 C 314.339844 164.402344 314.703125 166.480469 315.011719 168.566406 C 315.320312 170.65625 315.578125 172.746094 315.785156 174.847656 C 315.992188 176.945312 316.148438 179.050781 316.25 181.15625 C 316.355469 183.265625 316.40625 185.371094 316.40625 187.484375 Z M 316.40625 187.484375 "/>
<path style=" stroke:none;fill-rule:nonzero;fill:rgb(25.099182%,46.669006%,76.858521%);fill-opacity:1;" d="M 125.652344 257.804688 L 249.339844 257.804688 C 268.851562 240.625 281.234375 215.523438 281.234375 187.484375 C 281.234375 135.707031 239.253906 93.746094 187.496094 93.746094 C 135.71875 93.746094 93.746094 135.707031 93.746094 187.484375 C 93.75 215.523438 106.132812 240.625 125.652344 257.804688 Z M 125.652344 257.804688 "/>
<path style=" stroke:none;fill-rule:nonzero;fill:rgb(21.569824%,25.099182%,30.589294%);fill-opacity:1;" d="M 187.5 257.804688 L 249.34375 257.804688 C 268.859375 240.625 281.238281 215.523438 281.238281 187.484375 C 281.238281 161.601562 270.742188 138.167969 253.78125 121.203125 L 187.5 187.492188 Z M 187.5 257.804688 "/>
<path style="fill:none;stroke-width:2;stroke-linecap:butt;stroke-linejoin:miter;stroke:rgb(30.198669%,30.198669%,30.198669%);stroke-opacity:1;stroke-miterlimit:10;" d="M 32.000001 13.998667 L 32.000001 11.998667 " transform="matrix(5.859375,0,0,5.859375,0.0000045,0)"/>
<path style="fill:none;stroke-width:2;stroke-linecap:butt;stroke-linejoin:miter;stroke:rgb(30.198669%,30.198669%,30.198669%);stroke-opacity:1;stroke-miterlimit:10;" d="M 19.270667 19.270668 L 17.856667 17.856001 " transform="matrix(5.859375,0,0,5.859375,0.0000045,0)"/>
<path style="fill:none;stroke-width:2;stroke-linecap:butt;stroke-linejoin:miter;stroke:rgb(30.198669%,30.198669%,30.198669%);stroke-opacity:1;stroke-miterlimit:10;" d="M 14 31.998668 L 12 31.998668 " transform="matrix(5.859375,0,0,5.859375,0.0000045,0)"/>
<path style="fill:none;stroke-width:2;stroke-linecap:butt;stroke-linejoin:miter;stroke:rgb(30.198669%,30.198669%,30.198669%);stroke-opacity:1;stroke-miterlimit:10;" d="M 50.000001 31.998668 L 51.998002 31.998668 " transform="matrix(5.859375,0,0,5.859375,0.0000045,0)"/>
<path style="fill:none;stroke-width:2;stroke-linecap:butt;stroke-linejoin:miter;stroke:rgb(30.198669%,30.198669%,30.198669%);stroke-opacity:1;stroke-miterlimit:10;" d="M 44.726668 19.270668 L 46.140668 17.858001 " transform="matrix(5.859375,0,0,5.859375,0.0000045,0)"/>
<path style=" stroke:none;fill-rule:nonzero;fill:rgb(100%,100%,100%);fill-opacity:1;" d="M 210.9375 187.492188 C 210.9375 188.261719 210.898438 189.027344 210.824219 189.792969 C 210.75 190.554688 210.636719 191.3125 210.488281 192.066406 C 210.335938 192.820312 210.152344 193.5625 209.929688 194.296875 C 209.707031 195.03125 209.445312 195.753906 209.152344 196.464844 C 208.859375 197.171875 208.53125 197.867188 208.171875 198.542969 C 207.808594 199.21875 207.414062 199.878906 206.988281 200.515625 C 206.5625 201.152344 206.105469 201.769531 205.617188 202.363281 C 205.128906 202.957031 204.617188 203.523438 204.074219 204.066406 C 203.53125 204.609375 202.960938 205.125 202.367188 205.613281 C 201.773438 206.097656 201.160156 206.554688 200.519531 206.980469 C 199.882812 207.40625 199.226562 207.800781 198.546875 208.164062 C 197.871094 208.527344 197.179688 208.855469 196.46875 209.148438 C 195.761719 209.441406 195.039062 209.699219 194.304688 209.921875 C 193.570312 210.144531 192.824219 210.332031 192.074219 210.480469 C 191.320312 210.632812 190.5625 210.742188 189.796875 210.820312 C 189.035156 210.894531 188.269531 210.929688 187.5 210.929688 C 186.730469 210.929688 185.964844 210.894531 185.203125 210.820312 C 184.4375 210.742188 183.679688 210.632812 182.925781 210.480469 C 182.175781 210.332031 181.429688 210.144531 180.695312 209.921875 C 179.960938 209.699219 179.238281 209.441406 178.53125 209.148438 C 177.820312 208.855469 177.128906 208.527344 176.453125 208.164062 C 175.773438 207.800781 175.117188 207.40625 174.480469 206.980469 C 173.839844 206.554688 173.226562 206.097656 172.632812 205.613281 C 172.039062 205.125 171.46875 204.609375 170.925781 204.066406 C 170.382812 203.523438 169.871094 202.957031 169.382812 202.363281 C 168.894531 201.769531 168.4375 201.152344 168.011719 200.515625 C 167.585938 199.878906 167.191406 199.21875 166.828125 198.542969 C 166.46875 197.867188 166.140625 197.171875 165.847656 196.464844 C 165.554688 195.753906 165.292969 195.03125 165.070312 194.296875 C 164.847656 193.5625 164.664062 192.820312 164.511719 192.066406 C 164.363281 191.3125 164.25 190.554688 164.175781 189.792969 C 164.101562 189.027344 164.0625 188.261719 164.0625 187.492188 C 164.0625 186.726562 164.101562 185.960938 164.175781 185.195312 C 164.25 184.433594 164.363281 183.675781 164.511719 182.921875 C 164.664062 182.167969 164.847656 181.425781 165.070312 180.691406 C 165.292969 179.957031 165.554688 179.234375 165.847656 178.523438 C 166.140625 177.816406 166.46875 177.121094 166.828125 176.445312 C 167.191406 175.769531 167.585938 175.109375 168.011719 174.472656 C 168.4375 173.835938 168.894531 173.21875 169.382812 172.625 C 169.871094 172.03125 170.382812 171.464844 170.925781 170.921875 C 171.46875 170.378906 172.039062 169.863281 172.632812 169.375 C 173.226562 168.890625 173.839844 168.433594 174.480469 168.007812 C 175.117188 167.582031 175.773438 167.1875 176.453125 166.824219 C 177.128906 166.460938 177.820312 166.132812 178.53125 165.839844 C 179.238281 165.546875 179.960938 165.289062 180.695312 165.066406 C 181.429688 164.84375 182.175781 164.65625 182.925781 164.507812 C 183.679688 164.355469 184.4375 164.246094 185.203125 164.167969 C 185.964844 164.09375 186.730469 164.058594 187.5 164.054688 C 188.269531 164.058594 189.035156 164.09375 189.796875 164.167969 C 190.5625 164.246094 191.320312 164.355469 192.074219 164.507812 C 192.824219 164.65625 193.570312 164.84375 194.304688 165.066406 C 195.039062 165.289062 195.761719 165.546875 196.46875 165.839844 C 197.179688 166.132812 197.871094 166.460938 198.546875 166.824219 C 199.226562 167.1875 199.882812 167.582031 200.519531 168.007812 C 201.160156 168.433594 201.773438 168.890625 202.367188 169.375 C 202.960938 169.863281 203.53125 170.378906 204.074219 170.921875 C 204.617188 171.464844 205.128906 172.03125 205.617188 172.625 C 206.105469 173.21875 206.5625 173.835938 206.988281 174.472656 C 207.414062 175.109375 207.808594 175.769531 208.171875 176.445312 C 208.53125 177.121094 208.859375 177.816406 209.152344 178.523438 C 209.445312 179.234375 209.707031 179.957031 209.929688 180.691406 C 210.152344 181.425781 210.335938 182.167969 210.488281 182.921875 C 210.636719 183.675781 210.75 184.433594 210.824219 185.195312 C 210.898438 185.960938 210.9375 186.726562 210.9375 187.492188 Z M 210.9375 187.492188 "/>
<path style=" stroke:none;fill-rule:nonzero;fill:rgb(21.569824%,25.099182%,30.589294%);fill-opacity:1;" d="M 199.21875 187.492188 C 199.21875 188.261719 199.144531 189.027344 198.992188 189.78125 C 198.84375 190.535156 198.621094 191.269531 198.328125 191.980469 C 198.03125 192.691406 197.671875 193.363281 197.242188 194.003906 C 196.816406 194.644531 196.332031 195.238281 195.785156 195.78125 C 195.242188 196.324219 194.648438 196.808594 194.011719 197.238281 C 193.371094 197.664062 192.695312 198.027344 191.984375 198.320312 C 191.273438 198.617188 190.539062 198.835938 189.785156 198.988281 C 189.03125 199.136719 188.269531 199.210938 187.5 199.210938 C 186.730469 199.210938 185.96875 199.136719 185.214844 198.988281 C 184.460938 198.835938 183.726562 198.617188 183.015625 198.320312 C 182.304688 198.027344 181.628906 197.664062 180.988281 197.238281 C 180.351562 196.808594 179.757812 196.324219 179.214844 195.78125 C 178.667969 195.238281 178.183594 194.644531 177.757812 194.003906 C 177.328125 193.363281 176.96875 192.691406 176.671875 191.980469 C 176.378906 191.269531 176.15625 190.535156 176.007812 189.78125 C 175.855469 189.027344 175.78125 188.261719 175.78125 187.492188 C 175.78125 186.726562 175.855469 185.960938 176.007812 185.207031 C 176.15625 184.453125 176.378906 183.71875 176.671875 183.007812 C 176.96875 182.296875 177.328125 181.625 177.757812 180.984375 C 178.183594 180.34375 178.667969 179.75 179.214844 179.207031 C 179.757812 178.664062 180.351562 178.179688 180.988281 177.75 C 181.628906 177.324219 182.304688 176.960938 183.015625 176.667969 C 183.726562 176.371094 184.460938 176.152344 185.214844 176 C 185.96875 175.851562 186.730469 175.773438 187.5 175.773438 C 188.269531 175.773438 189.03125 175.851562 189.785156 176 C 190.539062 176.152344 191.273438 176.371094 191.984375 176.667969 C 192.695312 176.960938 193.371094 177.324219 194.011719 177.75 C 194.648438 178.179688 195.242188 178.664062 195.785156 179.207031 C 196.332031 179.75 196.816406 180.34375 197.242188 180.984375 C 197.671875 181.625 198.03125 182.296875 198.328125 183.007812 C 198.621094 183.71875 198.84375 184.453125 198.992188 185.207031 C 199.144531 185.960938 199.21875 186.726562 199.21875 187.492188 Z M 199.21875 187.492188 "/>
<path style="fill:none;stroke-width:2;stroke-linecap:round;stroke-linejoin:miter;stroke:rgb(100%,100%,100%);stroke-opacity:1;stroke-miterlimit:10;" d="M 34.120667 29.878001 L 39.776668 24.220668 " transform="matrix(5.859375,0,0,5.859375,0.0000045,0)"/>
<path style="fill:none;stroke-width:2;stroke-linecap:butt;stroke-linejoin:miter;stroke:rgb(30.198669%,30.198669%,30.198669%);stroke-opacity:1;stroke-miterlimit:10;" d="M 27 46.998669 L 29.000001 46.998669 " transform="matrix(5.859375,0,0,5.859375,0.0000045,0)"/>
<path style="fill:none;stroke-width:2;stroke-linecap:butt;stroke-linejoin:miter;stroke:rgb(30.198669%,30.198669%,30.198669%);stroke-opacity:1;stroke-miterlimit:10;" d="M 31.000001 46.998669 L 33.000001 46.998669 " transform="matrix(5.859375,0,0,5.859375,0.0000045,0)"/>
<path style="fill:none;stroke-width:2;stroke-linecap:butt;stroke-linejoin:miter;stroke:rgb(30.198669%,30.198669%,30.198669%);stroke-opacity:1;stroke-miterlimit:10;" d="M 35.000001 46.998669 L 37.000001 46.998669 " transform="matrix(5.859375,0,0,5.859375,0.0000045,0)"/>
</g>
</svg>
