<?xml version="1.0" encoding="UTF-8"?>
<svg xmlns="http://www.w3.org/2000/svg" xmlns:xlink="http://www.w3.org/1999/xlink" width="375pt" height="374.999991pt" viewBox="0 0 375 374.999991" version="1.2">
<defs>
<clipPath id="clip1">
  <path d="M 178 112.5 L 197 112.5 L 197 134 L 178 134 Z M 178 112.5 "/>
</clipPath>
<clipPath id="clip2">
  <path d="M 112.5 178 L 134 178 L 134 197 L 112.5 197 Z M 112.5 178 "/>
</clipPath>
<clipPath id="clip3">
  <path d="M 178 241 L 197 241 L 197 262.5 L 178 262.5 Z M 178 241 "/>
</clipPath>
<clipPath id="clip4">
  <path d="M 241 178 L 262.5 178 L 262.5 197 L 241 197 Z M 241 178 "/>
</clipPath>
<clipPath id="clip5">
  <path d="M 112.5 112.5 L 224 112.5 L 224 224 L 112.5 224 Z M 112.5 112.5 "/>
</clipPath>
<clipPath id="clip6">
  <path d="M 151 112.5 L 262.5 112.5 L 262.5 224 L 151 224 Z M 151 112.5 "/>
</clipPath>
<clipPath id="clip7">
  <path d="M 126 112.5 L 262.5 112.5 L 262.5 249 L 126 249 Z M 126 112.5 "/>
</clipPath>
</defs>
<g id="surface1">
<g clip-path="url(#clip1)" clip-rule="nonzero">
<path style=" stroke:none;fill-rule:nonzero;fill:rgb(21.569824%,25.099182%,30.589294%);fill-opacity:1;" d="M 196.875 133.589844 L 178.125 133.589844 L 182.8125 112.496094 L 192.1875 112.496094 Z M 196.875 133.589844 "/>
</g>
<path style=" stroke:none;fill-rule:nonzero;fill:rgb(21.569824%,25.099182%,30.589294%);fill-opacity:1;" d="M 168.664062 136.128906 L 152.425781 145.503906 L 145.941406 124.890625 L 154.054688 120.203125 Z M 168.664062 136.128906 "/>
<path style=" stroke:none;fill-rule:nonzero;fill:rgb(21.569824%,25.099182%,30.589294%);fill-opacity:1;" d="M 145.5 152.425781 L 136.125 168.664062 L 120.203125 154.058594 L 124.886719 145.941406 Z M 145.5 152.425781 "/>
<g clip-path="url(#clip2)" clip-rule="nonzero">
<path style=" stroke:none;fill-rule:nonzero;fill:rgb(21.569824%,25.099182%,30.589294%);fill-opacity:1;" d="M 133.59375 178.121094 L 133.589844 196.878906 L 112.5 192.1875 L 112.496094 182.816406 Z M 133.59375 178.121094 "/>
</g>
<path style=" stroke:none;fill-rule:nonzero;fill:rgb(21.569824%,25.099182%,30.589294%);fill-opacity:1;" d="M 136.125 206.335938 L 145.5 222.578125 L 124.890625 229.058594 L 120.203125 220.941406 Z M 136.125 206.335938 "/>
<path style=" stroke:none;fill-rule:nonzero;fill:rgb(21.569824%,25.099182%,30.589294%);fill-opacity:1;" d="M 152.425781 229.496094 L 168.667969 238.875 L 154.058594 254.792969 L 145.941406 250.109375 Z M 152.425781 229.496094 "/>
<g clip-path="url(#clip3)" clip-rule="nonzero">
<path style=" stroke:none;fill-rule:nonzero;fill:rgb(21.569824%,25.099182%,30.589294%);fill-opacity:1;" d="M 178.125 241.410156 L 196.878906 241.410156 L 192.1875 262.496094 L 182.8125 262.503906 Z M 178.125 241.410156 "/>
</g>
<path style=" stroke:none;fill-rule:nonzero;fill:rgb(21.569824%,25.099182%,30.589294%);fill-opacity:1;" d="M 206.335938 238.871094 L 222.578125 229.496094 L 229.054688 250.105469 L 220.945312 254.796875 Z M 206.335938 238.871094 "/>
<path style=" stroke:none;fill-rule:nonzero;fill:rgb(21.569824%,25.099182%,30.589294%);fill-opacity:1;" d="M 229.5 222.570312 L 238.878906 206.332031 L 254.792969 220.941406 L 250.113281 229.058594 Z M 229.5 222.570312 "/>
<g clip-path="url(#clip4)" clip-rule="nonzero">
<path style=" stroke:none;fill-rule:nonzero;fill:rgb(21.569824%,25.099182%,30.589294%);fill-opacity:1;" d="M 241.40625 196.871094 L 241.410156 178.121094 L 262.496094 182.8125 L 262.503906 192.183594 Z M 241.40625 196.871094 "/>
</g>
<path style=" stroke:none;fill-rule:nonzero;fill:rgb(21.569824%,25.099182%,30.589294%);fill-opacity:1;" d="M 238.871094 168.664062 L 229.5 152.421875 L 250.105469 145.941406 L 254.796875 154.058594 Z M 238.871094 168.664062 "/>
<path style=" stroke:none;fill-rule:nonzero;fill:rgb(21.569824%,25.099182%,30.589294%);fill-opacity:1;" d="M 222.570312 145.5 L 206.332031 136.121094 L 220.941406 120.207031 L 229.058594 124.890625 Z M 222.570312 145.5 "/>
<path style=" stroke:none;fill-rule:nonzero;fill:rgb(25.099182%,46.669006%,76.858521%);fill-opacity:1;" d="M 248.4375 187.496094 C 248.4375 221.144531 221.152344 248.433594 187.5 248.433594 C 153.847656 248.433594 126.5625 221.144531 126.5625 187.496094 C 126.5625 153.84375 153.847656 126.558594 187.5 126.558594 C 221.152344 126.558594 248.4375 153.84375 248.4375 187.496094 Z M 248.4375 187.496094 "/>
<path style=" stroke:none;fill-rule:nonzero;fill:rgb(100%,100%,100%);fill-opacity:1;" d="M 239.0625 187.492188 C 239.0625 189.183594 238.980469 190.867188 238.8125 192.546875 C 238.648438 194.226562 238.402344 195.894531 238.070312 197.550781 C 237.742188 199.207031 237.332031 200.84375 236.84375 202.460938 C 236.351562 204.078125 235.785156 205.664062 235.136719 207.226562 C 234.492188 208.785156 233.769531 210.308594 232.972656 211.800781 C 232.179688 213.289062 231.3125 214.734375 230.371094 216.140625 C 229.433594 217.542969 228.429688 218.898438 227.359375 220.203125 C 226.285156 221.507812 225.152344 222.757812 223.960938 223.953125 C 222.765625 225.148438 221.515625 226.28125 220.210938 227.351562 C 218.90625 228.421875 217.550781 229.425781 216.148438 230.367188 C 214.742188 231.304688 213.296875 232.171875 211.804688 232.96875 C 210.316406 233.761719 208.792969 234.484375 207.230469 235.128906 C 205.671875 235.777344 204.082031 236.34375 202.46875 236.835938 C 200.851562 237.324219 199.214844 237.734375 197.558594 238.066406 C 195.902344 238.394531 194.234375 238.640625 192.554688 238.808594 C 190.875 238.972656 189.1875 239.054688 187.5 239.054688 C 185.8125 239.054688 184.125 238.972656 182.445312 238.808594 C 180.765625 238.640625 179.097656 238.394531 177.441406 238.066406 C 175.785156 237.734375 174.148438 237.324219 172.53125 236.835938 C 170.917969 236.34375 169.328125 235.777344 167.769531 235.128906 C 166.207031 234.484375 164.683594 233.761719 163.195312 232.96875 C 161.703125 232.171875 160.257812 231.304688 158.851562 230.367188 C 157.449219 229.425781 156.09375 228.421875 154.789062 227.351562 C 153.484375 226.28125 152.234375 225.148438 151.039062 223.953125 C 149.84375 222.757812 148.714844 221.507812 147.640625 220.203125 C 146.570312 218.898438 145.566406 217.542969 144.628906 216.140625 C 143.6875 214.734375 142.820312 213.289062 142.027344 211.800781 C 141.230469 210.308594 140.507812 208.785156 139.863281 207.226562 C 139.214844 205.664062 138.648438 204.078125 138.15625 202.460938 C 137.667969 200.84375 137.257812 199.207031 136.929688 197.550781 C 136.597656 195.894531 136.351562 194.226562 136.1875 192.546875 C 136.019531 190.867188 135.9375 189.183594 135.9375 187.492188 C 135.9375 185.804688 136.019531 184.121094 136.1875 182.4375 C 136.351562 180.757812 136.597656 179.089844 136.929688 177.433594 C 137.257812 175.777344 137.667969 174.140625 138.15625 172.523438 C 138.648438 170.910156 139.214844 169.320312 139.863281 167.761719 C 140.507812 166.199219 141.230469 164.675781 142.027344 163.1875 C 142.820312 161.695312 143.6875 160.25 144.628906 158.847656 C 145.566406 157.441406 146.570312 156.085938 147.640625 154.78125 C 148.714844 153.476562 149.84375 152.226562 151.039062 151.03125 C 152.234375 149.839844 153.484375 148.707031 154.789062 147.632812 C 156.09375 146.5625 157.449219 145.558594 158.851562 144.621094 C 160.257812 143.683594 161.703125 142.816406 163.195312 142.019531 C 164.683594 141.222656 166.207031 140.5 167.769531 139.855469 C 169.328125 139.210938 170.917969 138.640625 172.53125 138.152344 C 174.148438 137.660156 175.785156 137.25 177.441406 136.921875 C 179.097656 136.589844 180.765625 136.34375 182.445312 136.179688 C 184.125 136.011719 185.8125 135.929688 187.5 135.929688 C 189.1875 135.929688 190.875 136.011719 192.554688 136.179688 C 194.234375 136.34375 195.902344 136.589844 197.558594 136.921875 C 199.214844 137.25 200.851562 137.660156 202.46875 138.152344 C 204.082031 138.640625 205.671875 139.210938 207.230469 139.855469 C 208.792969 140.5 210.316406 141.222656 211.804688 142.019531 C 213.296875 142.816406 214.742188 143.683594 216.148438 144.621094 C 217.550781 145.558594 218.90625 146.5625 220.210938 147.632812 C 221.515625 148.707031 222.765625 149.839844 223.960938 151.03125 C 225.152344 152.226562 226.285156 153.476562 227.359375 154.78125 C 228.429688 156.085938 229.433594 157.441406 230.371094 158.847656 C 231.3125 160.25 232.179688 161.695312 232.972656 163.1875 C 233.769531 164.675781 234.492188 166.199219 235.136719 167.761719 C 235.785156 169.320312 236.351562 170.910156 236.84375 172.523438 C 237.332031 174.140625 237.742188 175.777344 238.070312 177.433594 C 238.402344 179.089844 238.648438 180.757812 238.8125 182.4375 C 238.980469 184.121094 239.0625 185.804688 239.0625 187.492188 Z M 239.0625 187.492188 "/>
<path style=" stroke:none;fill-rule:nonzero;fill:rgb(25.099182%,46.669006%,76.858521%);fill-opacity:1;" d="M 162.761719 215.621094 L 212.234375 215.621094 C 220.039062 208.75 224.992188 198.710938 224.992188 187.492188 C 224.992188 166.785156 208.203125 149.996094 187.496094 149.996094 C 166.789062 149.996094 149.996094 166.785156 149.996094 187.492188 C 150 198.710938 154.953125 208.75 162.761719 215.621094 Z M 162.761719 215.621094 "/>
<path style=" stroke:none;fill-rule:nonzero;fill:rgb(21.569824%,25.099182%,30.589294%);fill-opacity:1;" d="M 187.5 215.621094 L 212.238281 215.621094 C 220.042969 208.75 224.996094 198.710938 224.996094 187.492188 C 224.996094 177.140625 220.796875 167.769531 214.011719 160.980469 L 187.5 187.496094 Z M 187.5 215.621094 "/>
<path style="fill:none;stroke-width:2;stroke-linecap:butt;stroke-linejoin:miter;stroke:rgb(30.198669%,30.198669%,30.198669%);stroke-opacity:1;stroke-miterlimit:10;" d="M 32.000003 13.998337 L 32.000003 11.998337 " transform="matrix(2.34375,0,0,2.34375,112.499997,112.499993)"/>
<g clip-path="url(#clip5)" clip-rule="nonzero">
<path style="fill:none;stroke-width:2;stroke-linecap:butt;stroke-linejoin:miter;stroke:rgb(30.198669%,30.198669%,30.198669%);stroke-opacity:1;stroke-miterlimit:10;" d="M 19.271669 19.271671 L 17.856669 17.856671 " transform="matrix(2.34375,0,0,2.34375,112.499997,112.499993)"/>
</g>
<path style="fill:none;stroke-width:2;stroke-linecap:butt;stroke-linejoin:miter;stroke:rgb(30.198669%,30.198669%,30.198669%);stroke-opacity:1;stroke-miterlimit:10;" d="M 14.000002 31.998339 L 12.000002 31.998339 " transform="matrix(2.34375,0,0,2.34375,112.499997,112.499993)"/>
<path style="fill:none;stroke-width:2;stroke-linecap:butt;stroke-linejoin:miter;stroke:rgb(30.198669%,30.198669%,30.198669%);stroke-opacity:1;stroke-miterlimit:10;" d="M 50.000005 31.998339 L 51.998338 31.998339 " transform="matrix(2.34375,0,0,2.34375,112.499997,112.499993)"/>
<g clip-path="url(#clip6)" clip-rule="nonzero">
<path style="fill:none;stroke-width:2;stroke-linecap:butt;stroke-linejoin:miter;stroke:rgb(30.198669%,30.198669%,30.198669%);stroke-opacity:1;stroke-miterlimit:10;" d="M 44.726671 19.271671 L 46.141671 17.858338 " transform="matrix(2.34375,0,0,2.34375,112.499997,112.499993)"/>
</g>
<path style=" stroke:none;fill-rule:nonzero;fill:rgb(100%,100%,100%);fill-opacity:1;" d="M 196.875 187.496094 C 196.875 188.113281 196.816406 188.722656 196.695312 189.328125 C 196.574219 189.929688 196.398438 190.515625 196.160156 191.085938 C 195.925781 191.652344 195.636719 192.195312 195.296875 192.707031 C 194.953125 193.21875 194.5625 193.691406 194.128906 194.125 C 193.695312 194.5625 193.21875 194.949219 192.707031 195.292969 C 192.195312 195.632812 191.65625 195.921875 191.085938 196.160156 C 190.519531 196.394531 189.933594 196.574219 189.328125 196.691406 C 188.726562 196.8125 188.117188 196.871094 187.5 196.871094 C 186.882812 196.871094 186.273438 196.8125 185.671875 196.691406 C 185.066406 196.574219 184.480469 196.394531 183.914062 196.160156 C 183.34375 195.921875 182.804688 195.632812 182.292969 195.292969 C 181.78125 194.949219 181.304688 194.5625 180.871094 194.125 C 180.4375 193.691406 180.046875 193.21875 179.703125 192.707031 C 179.363281 192.195312 179.074219 191.652344 178.839844 191.085938 C 178.601562 190.515625 178.425781 189.929688 178.304688 189.328125 C 178.183594 188.722656 178.125 188.113281 178.125 187.496094 C 178.125 186.882812 178.183594 186.273438 178.304688 185.667969 C 178.425781 185.066406 178.601562 184.480469 178.839844 183.910156 C 179.074219 183.339844 179.363281 182.800781 179.703125 182.289062 C 180.046875 181.777344 180.4375 181.304688 180.871094 180.867188 C 181.304688 180.433594 181.78125 180.042969 182.292969 179.703125 C 182.804688 179.359375 183.34375 179.070312 183.914062 178.835938 C 184.480469 178.601562 185.066406 178.421875 185.671875 178.304688 C 186.273438 178.183594 186.882812 178.121094 187.5 178.121094 C 188.117188 178.121094 188.726562 178.183594 189.328125 178.304688 C 189.933594 178.421875 190.519531 178.601562 191.085938 178.835938 C 191.65625 179.070312 192.195312 179.359375 192.707031 179.703125 C 193.21875 180.042969 193.695312 180.433594 194.128906 180.867188 C 194.5625 181.304688 194.953125 181.777344 195.296875 182.289062 C 195.636719 182.800781 195.925781 183.339844 196.160156 183.910156 C 196.398438 184.480469 196.574219 185.066406 196.695312 185.667969 C 196.816406 186.273438 196.875 186.882812 196.875 187.496094 Z M 196.875 187.496094 "/>
<path style=" stroke:none;fill-rule:nonzero;fill:rgb(21.569824%,25.099182%,30.589294%);fill-opacity:1;" d="M 192.1875 187.496094 C 192.1875 187.804688 192.15625 188.109375 192.097656 188.414062 C 192.039062 188.714844 191.949219 189.007812 191.832031 189.292969 C 191.710938 189.574219 191.570312 189.847656 191.398438 190.101562 C 191.226562 190.359375 191.03125 190.59375 190.816406 190.8125 C 190.597656 191.03125 190.359375 191.222656 190.105469 191.394531 C 189.847656 191.566406 189.578125 191.710938 189.292969 191.828125 C 189.007812 191.945312 188.714844 192.035156 188.414062 192.09375 C 188.113281 192.15625 187.808594 192.183594 187.5 192.183594 C 187.191406 192.183594 186.886719 192.15625 186.585938 192.09375 C 186.285156 192.035156 185.992188 191.945312 185.707031 191.828125 C 185.421875 191.710938 185.152344 191.566406 184.894531 191.394531 C 184.640625 191.222656 184.402344 191.03125 184.183594 190.8125 C 183.96875 190.59375 183.773438 190.359375 183.601562 190.101562 C 183.429688 189.847656 183.285156 189.574219 183.167969 189.292969 C 183.050781 189.007812 182.960938 188.714844 182.902344 188.414062 C 182.84375 188.109375 182.8125 187.804688 182.8125 187.496094 C 182.8125 187.191406 182.84375 186.886719 182.902344 186.582031 C 182.960938 186.28125 183.050781 185.988281 183.167969 185.703125 C 183.285156 185.417969 183.429688 185.148438 183.601562 184.894531 C 183.773438 184.636719 183.96875 184.402344 184.183594 184.183594 C 184.402344 183.964844 184.640625 183.769531 184.894531 183.601562 C 185.152344 183.429688 185.421875 183.285156 185.707031 183.167969 C 185.992188 183.050781 186.285156 182.960938 186.585938 182.898438 C 186.886719 182.839844 187.191406 182.808594 187.5 182.808594 C 187.808594 182.808594 188.113281 182.839844 188.414062 182.898438 C 188.714844 182.960938 189.007812 183.050781 189.292969 183.167969 C 189.578125 183.285156 189.847656 183.429688 190.105469 183.601562 C 190.359375 183.769531 190.597656 183.964844 190.816406 184.183594 C 191.03125 184.402344 191.226562 184.636719 191.398438 184.894531 C 191.570312 185.148438 191.710938 185.417969 191.832031 185.703125 C 191.949219 185.988281 192.039062 186.28125 192.097656 186.582031 C 192.15625 186.886719 192.1875 187.191406 192.1875 187.496094 Z M 192.1875 187.496094 "/>
<g clip-path="url(#clip7)" clip-rule="nonzero">
<path style="fill:none;stroke-width:2;stroke-linecap:round;stroke-linejoin:miter;stroke:rgb(100%,100%,100%);stroke-opacity:1;stroke-miterlimit:10;" d="M 34.12167 29.878338 L 39.776671 24.221671 " transform="matrix(2.34375,0,0,2.34375,112.499997,112.499993)"/>
</g>
<path style="fill:none;stroke-width:2;stroke-linecap:butt;stroke-linejoin:miter;stroke:rgb(30.198669%,30.198669%,30.198669%);stroke-opacity:1;stroke-miterlimit:10;" d="M 27.000003 46.99834 L 29.000003 46.99834 " transform="matrix(2.34375,0,0,2.34375,112.499997,112.499993)"/>
<path style="fill:none;stroke-width:2;stroke-linecap:butt;stroke-linejoin:miter;stroke:rgb(30.198669%,30.198669%,30.198669%);stroke-opacity:1;stroke-miterlimit:10;" d="M 31.000003 46.99834 L 33.000003 46.99834 " transform="matrix(2.34375,0,0,2.34375,112.499997,112.499993)"/>
<path style="fill:none;stroke-width:2;stroke-linecap:butt;stroke-linejoin:miter;stroke:rgb(30.198669%,30.198669%,30.198669%);stroke-opacity:1;stroke-miterlimit:10;" d="M 35.000004 46.99834 L 37.000004 46.99834 " transform="matrix(2.34375,0,0,2.34375,112.499997,112.499993)"/>
</g>
</svg>
