<?xml version="1.0" encoding="UTF-8"?>
<svg xmlns="http://www.w3.org/2000/svg" xmlns:xlink="http://www.w3.org/1999/xlink" width="375pt" height="374.999991pt" viewBox="0 0 375 374.999991" version="1.2">
<defs>
<clipPath id="clip1">
  <path d="M 15.46875 1 L 302 1 L 302 374 L 15.46875 374 Z M 15.46875 1 "/>
</clipPath>
<clipPath id="clip2">
  <path d="M 170 148 L 359.71875 148 L 359.71875 337 L 170 337 Z M 170 148 "/>
</clipPath>
</defs>
<g id="surface1">
<path style=" stroke:none;fill-rule:nonzero;fill:rgb(54.508972%,81.959534%,93.728638%);fill-opacity:1;" d="M 308.832031 198.609375 L 295.09375 212.34375 L 216.621094 290.847656 L 234.144531 308.363281 L 295.09375 247.445312 L 326.40625 216.199219 L 308.832031 198.609375 "/>
<path style=" stroke:none;fill-rule:nonzero;fill:rgb(54.508972%,81.959534%,93.728638%);fill-opacity:1;" d="M 295.09375 184.902344 L 291.308594 181.09375 L 199.023438 273.257812 L 216.546875 290.847656 L 216.621094 290.847656 L 295.09375 212.34375 L 308.832031 198.609375 L 295.09375 184.902344 "/>
<path style=" stroke:none;fill-rule:nonzero;fill:rgb(54.508972%,81.959534%,93.728638%);fill-opacity:1;" d="M 317.644531 154.699219 L 295.09375 177.238281 L 291.308594 181.09375 L 295.09375 184.902344 L 308.832031 198.609375 L 326.40625 216.199219 L 352.765625 189.804688 L 317.644531 154.699219 "/>
<path style=" stroke:none;fill-rule:nonzero;fill:rgb(54.508972%,81.959534%,93.728638%);fill-opacity:1;" d="M 295.09375 57.078125 L 257.8125 57.078125 C 250.988281 57.078125 245.382812 51.476562 245.382812 44.65625 L 245.382812 7.394531 L 295.09375 57.078125 "/>
<path style=" stroke:none;fill-rule:nonzero;fill:rgb(54.508972%,81.959534%,93.728638%);fill-opacity:1;" d="M 177.03125 146.890625 C 169.382812 140.121094 164.601562 130.175781 164.601562 119.183594 C 164.601562 98.636719 181.328125 81.921875 201.886719 81.921875 C 222.445312 81.921875 239.167969 98.636719 239.167969 119.183594 C 239.167969 139.730469 222.445312 156.449219 201.886719 156.449219 C 192.320312 156.449219 183.609375 152.832031 177.03125 146.890625 "/>
<path style=" stroke:none;fill-rule:nonzero;fill:rgb(54.508972%,81.959534%,93.728638%);fill-opacity:1;" d="M 208.777344 318.113281 L 177.03125 330.339844 L 189.265625 298.609375 Z M 208.777344 318.113281 "/>
<path style=" stroke:none;fill-rule:nonzero;fill:rgb(54.508972%,81.959534%,93.728638%);fill-opacity:1;" d="M 139.746094 81.921875 L 139.746094 119.183594 L 102.464844 119.183594 L 102.464844 156.449219 L 65.179688 156.449219 L 65.179688 81.921875 L 139.746094 81.921875 "/>
<g clip-path="url(#clip1)" clip-rule="nonzero">
<path style=" stroke:none;fill-rule:nonzero;fill:rgb(23.139954%,39.219666%,57.249451%);fill-opacity:1;" d="M 251.597656 44.65625 L 251.597656 22.386719 L 280.09375 50.867188 L 257.8125 50.867188 C 254.386719 50.867188 251.597656 48.078125 251.597656 44.65625 Z M 288.878906 342.761719 C 288.878906 353.050781 280.53125 361.394531 270.238281 361.394531 L 46.539062 361.394531 C 36.246094 361.394531 27.898438 353.050781 27.898438 342.761719 L 27.898438 32.238281 C 27.898438 21.949219 36.246094 13.605469 46.539062 13.605469 L 239.167969 13.605469 L 239.167969 44.65625 C 239.167969 54.945312 247.519531 63.289062 257.8125 63.289062 L 288.878906 63.289062 L 288.878906 150.238281 L 301.308594 150.238281 L 301.308594 57.078125 C 301.308594 55.429688 300.652344 53.851562 299.488281 52.6875 L 249.777344 3.003906 C 248.609375 1.839844 247.035156 1.183594 245.382812 1.183594 L 46.539062 1.183594 C 29.402344 1.183594 15.46875 15.109375 15.46875 32.238281 L 15.46875 342.761719 C 15.46875 359.890625 29.402344 373.816406 46.539062 373.816406 L 270.238281 373.816406 C 287.375 373.816406 301.308594 359.890625 301.308594 342.761719 L 301.308594 274.445312 L 288.878906 274.445312 L 288.878906 342.761719 "/>
</g>
<g clip-path="url(#clip2)" clip-rule="nonzero">
<path style=" stroke:none;fill-rule:nonzero;fill:rgb(23.139954%,39.219666%,57.249451%);fill-opacity:1;" d="M 326.429688 207.394531 L 300.046875 181.023438 L 317.644531 163.457031 L 344.003906 189.804688 Z M 191.59375 309.769531 L 197.613281 315.785156 L 187.855469 319.523438 Z M 216.570312 282.039062 L 207.785156 273.257812 L 291.285156 189.804688 L 300.046875 198.585938 Z M 225.359375 290.824219 L 308.855469 207.394531 L 317.644531 216.152344 L 234.144531 299.605469 Z M 223.003906 306.035156 L 210.308594 310.886719 L 196.496094 297.082031 L 201.351562 284.394531 Z M 357.183594 185.414062 L 322.039062 150.285156 C 319.609375 147.859375 315.652344 147.859375 313.226562 150.285156 L 194.605469 268.867188 C 193.996094 269.472656 193.511719 270.226562 193.195312 271.027344 L 171.230469 328.109375 C 170.355469 330.414062 170.914062 332.984375 172.636719 334.734375 C 173.824219 335.921875 175.402344 336.550781 177.03125 336.550781 C 177.78125 336.550781 178.535156 336.429688 179.261719 336.140625 L 236.378906 314.183594 C 237.179688 313.871094 237.929688 313.382812 238.539062 312.777344 L 357.183594 194.21875 C 359.613281 191.792969 359.613281 187.839844 357.183594 185.414062 "/>
</g>
<path style=" stroke:none;fill-rule:nonzero;fill:rgb(23.139954%,39.219666%,57.249451%);fill-opacity:1;" d="M 145.960938 137.816406 L 133.53125 137.816406 L 133.53125 150.238281 L 121.105469 150.238281 L 121.105469 162.65625 L 139.746094 162.65625 C 143.167969 162.65625 145.960938 159.867188 145.960938 156.449219 L 145.960938 137.816406 "/>
<path style=" stroke:none;fill-rule:nonzero;fill:rgb(23.139954%,39.219666%,57.249451%);fill-opacity:1;" d="M 145.960938 100.554688 L 145.960938 81.921875 C 145.960938 78.5 143.167969 75.710938 139.746094 75.710938 L 65.179688 75.710938 C 61.757812 75.710938 58.964844 78.5 58.964844 81.921875 L 58.964844 156.449219 C 58.964844 159.867188 61.757812 162.65625 65.179688 162.65625 L 83.820312 162.65625 L 83.820312 150.238281 L 71.394531 150.238281 L 71.394531 88.132812 L 133.53125 88.132812 L 133.53125 100.554688 L 145.960938 100.554688 "/>
<path style=" stroke:none;fill-rule:nonzero;fill:rgb(23.139954%,39.219666%,57.249451%);fill-opacity:1;" d="M 108.675781 112.972656 L 96.25 112.972656 L 96.25 125.394531 L 108.675781 125.394531 L 108.675781 112.972656 "/>
<path style=" stroke:none;fill-rule:nonzero;fill:rgb(23.139954%,39.219666%,57.249451%);fill-opacity:1;" d="M 133.53125 125.394531 L 133.53125 112.972656 L 121.105469 112.972656 L 121.105469 125.394531 L 133.53125 125.394531 "/>
<path style=" stroke:none;fill-rule:nonzero;fill:rgb(23.139954%,39.219666%,57.249451%);fill-opacity:1;" d="M 183.242188 162.65625 L 170.816406 162.65625 L 170.816406 175.078125 L 183.242188 175.078125 L 183.242188 162.65625 "/>
<path style=" stroke:none;fill-rule:nonzero;fill:rgb(23.139954%,39.219666%,57.249451%);fill-opacity:1;" d="M 170.816406 199.921875 L 183.242188 199.921875 L 183.242188 187.5 L 170.816406 187.5 L 170.816406 199.921875 "/>
<path style=" stroke:none;fill-rule:nonzero;fill:rgb(23.139954%,39.219666%,57.249451%);fill-opacity:1;" d="M 158.386719 187.5 L 145.960938 187.5 L 145.960938 199.921875 L 158.386719 199.921875 L 158.386719 187.5 "/>
<path style=" stroke:none;fill-rule:nonzero;fill:rgb(23.139954%,39.219666%,57.249451%);fill-opacity:1;" d="M 133.53125 187.5 L 121.105469 187.5 L 121.105469 199.921875 L 133.53125 199.921875 L 133.53125 187.5 "/>
<path style=" stroke:none;fill-rule:nonzero;fill:rgb(23.139954%,39.219666%,57.249451%);fill-opacity:1;" d="M 108.675781 137.816406 L 96.25 137.816406 L 96.25 150.238281 L 108.675781 150.238281 L 108.675781 137.816406 "/>
<path style=" stroke:none;fill-rule:nonzero;fill:rgb(23.139954%,39.219666%,57.249451%);fill-opacity:1;" d="M 108.675781 162.65625 L 96.25 162.65625 L 96.25 175.078125 L 108.675781 175.078125 L 108.675781 162.65625 "/>
<path style=" stroke:none;fill-rule:nonzero;fill:rgb(23.139954%,39.219666%,57.249451%);fill-opacity:1;" d="M 96.25 199.921875 L 108.675781 199.921875 L 108.675781 187.5 L 96.25 187.5 L 96.25 199.921875 "/>
<path style=" stroke:none;fill-rule:nonzero;fill:rgb(23.139954%,39.219666%,57.249451%);fill-opacity:1;" d="M 170.816406 119.183594 C 170.816406 102.058594 184.75 88.132812 201.886719 88.132812 C 219.023438 88.132812 232.957031 102.058594 232.957031 119.183594 C 232.957031 136.3125 219.023438 150.238281 201.886719 150.238281 C 184.75 150.238281 170.816406 136.3125 170.816406 119.183594 Z M 245.382812 119.183594 C 245.382812 95.214844 225.867188 75.710938 201.886719 75.710938 C 177.902344 75.710938 158.386719 95.214844 158.386719 119.183594 C 158.386719 143.152344 177.902344 162.65625 201.886719 162.65625 C 225.867188 162.65625 245.382812 143.152344 245.382812 119.183594 "/>
<path style=" stroke:none;fill-rule:nonzero;fill:rgb(23.139954%,39.219666%,57.249451%);fill-opacity:1;" d="M 145.960938 249.605469 L 58.964844 249.605469 L 58.964844 262.027344 L 145.960938 262.027344 L 145.960938 249.605469 "/>
<path style=" stroke:none;fill-rule:nonzero;fill:rgb(23.139954%,39.219666%,57.249451%);fill-opacity:1;" d="M 145.960938 274.445312 L 58.964844 274.445312 L 58.964844 286.867188 L 145.960938 286.867188 L 145.960938 274.445312 "/>
<path style=" stroke:none;fill-rule:nonzero;fill:rgb(23.139954%,39.219666%,57.249451%);fill-opacity:1;" d="M 145.960938 299.289062 L 58.964844 299.289062 L 58.964844 311.710938 L 145.960938 311.710938 L 145.960938 299.289062 "/>
<path style=" stroke:none;fill-rule:nonzero;fill:rgb(23.139954%,39.219666%,57.249451%);fill-opacity:1;" d="M 58.964844 336.550781 L 145.960938 336.550781 L 145.960938 324.132812 L 58.964844 324.132812 L 58.964844 336.550781 "/>
</g>
</svg>
