<?xml version="1.0" encoding="UTF-8"?>
<svg xmlns="http://www.w3.org/2000/svg" xmlns:xlink="http://www.w3.org/1999/xlink" width="375pt" height="374.999991pt" viewBox="0 0 375 374.999991" version="1.2">
<defs>
<clipPath id="clip1">
  <path d="M 132.9375 136 L 248 136 L 248 285.75 L 132.9375 285.75 Z M 132.9375 136 "/>
</clipPath>
<clipPath id="clip2">
  <path d="M 195 195 L 270.9375 195 L 270.9375 271 L 195 271 Z M 195 195 "/>
</clipPath>
</defs>
<g id="surface1">
<path style=" stroke:none;fill-rule:nonzero;fill:rgb(54.508972%,81.959534%,93.728638%);fill-opacity:1;" d="M 250.539062 215.195312 L 245.03125 220.6875 L 213.574219 252.089844 L 220.597656 259.09375 L 245.03125 234.726562 L 257.582031 222.230469 L 250.539062 215.195312 "/>
<path style=" stroke:none;fill-rule:nonzero;fill:rgb(54.508972%,81.959534%,93.728638%);fill-opacity:1;" d="M 245.03125 209.710938 L 243.511719 208.1875 L 206.519531 245.054688 L 213.542969 252.089844 L 213.574219 252.089844 L 245.03125 220.6875 L 250.539062 215.195312 L 245.03125 209.710938 "/>
<path style=" stroke:none;fill-rule:nonzero;fill:rgb(54.508972%,81.959534%,93.728638%);fill-opacity:1;" d="M 254.070312 197.628906 L 245.03125 206.644531 L 243.511719 208.1875 L 245.03125 209.710938 L 250.539062 215.195312 L 257.582031 222.230469 L 268.152344 211.671875 L 254.070312 197.628906 "/>
<path style=" stroke:none;fill-rule:nonzero;fill:rgb(54.508972%,81.959534%,93.728638%);fill-opacity:1;" d="M 245.03125 158.582031 L 230.085938 158.582031 C 227.351562 158.582031 225.105469 156.339844 225.105469 153.613281 L 225.105469 138.707031 L 245.03125 158.582031 "/>
<path style=" stroke:none;fill-rule:nonzero;fill:rgb(54.508972%,81.959534%,93.728638%);fill-opacity:1;" d="M 197.703125 194.503906 C 194.636719 191.796875 192.722656 187.820312 192.722656 183.421875 C 192.722656 175.203125 199.425781 168.519531 207.667969 168.519531 C 215.910156 168.519531 222.613281 175.203125 222.613281 183.421875 C 222.613281 191.644531 215.910156 198.328125 207.667969 198.328125 C 203.832031 198.328125 200.339844 196.882812 197.703125 194.503906 "/>
<path style=" stroke:none;fill-rule:nonzero;fill:rgb(54.508972%,81.959534%,93.728638%);fill-opacity:1;" d="M 210.429688 262.996094 L 197.703125 267.886719 L 202.605469 255.195312 Z M 210.429688 262.996094 "/>
<path style=" stroke:none;fill-rule:nonzero;fill:rgb(54.508972%,81.959534%,93.728638%);fill-opacity:1;" d="M 182.757812 168.519531 L 182.757812 183.421875 L 167.8125 183.421875 L 167.8125 198.328125 L 152.867188 198.328125 L 152.867188 168.519531 L 182.757812 168.519531 "/>
<g clip-path="url(#clip1)" clip-rule="nonzero">
<path style=" stroke:none;fill-rule:nonzero;fill:rgb(23.139954%,39.219666%,57.249451%);fill-opacity:1;" d="M 227.59375 153.613281 L 227.59375 144.703125 L 239.019531 156.097656 L 230.085938 156.097656 C 228.714844 156.097656 227.59375 154.980469 227.59375 153.613281 Z M 242.539062 272.855469 C 242.539062 276.96875 239.191406 280.308594 235.066406 280.308594 L 145.390625 280.308594 C 141.265625 280.308594 137.917969 276.96875 137.917969 272.855469 L 137.917969 148.644531 C 137.917969 144.53125 141.265625 141.191406 145.390625 141.191406 L 222.613281 141.191406 L 222.613281 153.613281 C 222.613281 157.726562 225.960938 161.066406 230.085938 161.066406 L 242.539062 161.066406 L 242.539062 195.84375 L 247.523438 195.84375 L 247.523438 158.582031 C 247.523438 157.921875 247.257812 157.292969 246.792969 156.824219 L 226.863281 136.953125 C 226.398438 136.484375 225.765625 136.222656 225.105469 136.222656 L 145.390625 136.222656 C 138.523438 136.222656 132.9375 141.792969 132.9375 148.644531 L 132.9375 272.855469 C 132.9375 279.707031 138.523438 285.277344 145.390625 285.277344 L 235.066406 285.277344 C 241.9375 285.277344 247.523438 279.707031 247.523438 272.855469 L 247.523438 245.527344 L 242.539062 245.527344 L 242.539062 272.855469 "/>
</g>
<g clip-path="url(#clip2)" clip-rule="nonzero">
<path style=" stroke:none;fill-rule:nonzero;fill:rgb(23.139954%,39.219666%,57.249451%);fill-opacity:1;" d="M 257.59375 218.707031 L 247.015625 208.160156 L 254.070312 201.132812 L 264.636719 211.671875 Z M 203.542969 259.65625 L 205.953125 262.0625 L 202.042969 263.558594 Z M 213.554688 248.566406 L 210.03125 245.054688 L 243.503906 211.671875 L 247.015625 215.183594 Z M 217.074219 252.078125 L 250.546875 218.707031 L 254.070312 222.210938 L 220.597656 255.59375 Z M 216.132812 258.164062 L 211.042969 260.105469 L 205.507812 254.582031 L 207.453125 249.507812 Z M 269.921875 209.914062 L 255.832031 195.863281 C 254.859375 194.894531 253.273438 194.894531 252.300781 195.863281 L 204.746094 243.296875 C 204.503906 243.539062 204.308594 243.839844 204.183594 244.160156 L 195.378906 266.992188 C 195.027344 267.914062 195.25 268.945312 195.941406 269.644531 C 196.417969 270.117188 197.050781 270.371094 197.703125 270.371094 C 198.003906 270.371094 198.304688 270.324219 198.597656 270.207031 L 221.492188 261.425781 C 221.816406 261.296875 222.117188 261.105469 222.359375 260.859375 L 269.921875 213.4375 C 270.894531 212.46875 270.894531 210.886719 269.921875 209.914062 "/>
</g>
<path style=" stroke:none;fill-rule:nonzero;fill:rgb(23.139954%,39.219666%,57.249451%);fill-opacity:1;" d="M 185.246094 190.875 L 180.265625 190.875 L 180.265625 195.84375 L 175.285156 195.84375 L 175.285156 200.8125 L 182.757812 200.8125 C 184.128906 200.8125 185.246094 199.695312 185.246094 198.328125 L 185.246094 190.875 "/>
<path style=" stroke:none;fill-rule:nonzero;fill:rgb(23.139954%,39.219666%,57.249451%);fill-opacity:1;" d="M 185.246094 175.972656 L 185.246094 168.519531 C 185.246094 167.148438 184.128906 166.035156 182.757812 166.035156 L 152.867188 166.035156 C 151.492188 166.035156 150.375 167.148438 150.375 168.519531 L 150.375 198.328125 C 150.375 199.695312 151.492188 200.8125 152.867188 200.8125 L 160.339844 200.8125 L 160.339844 195.84375 L 155.355469 195.84375 L 155.355469 171.003906 L 180.265625 171.003906 L 180.265625 175.972656 L 185.246094 175.972656 "/>
<path style=" stroke:none;fill-rule:nonzero;fill:rgb(23.139954%,39.219666%,57.249451%);fill-opacity:1;" d="M 170.300781 180.941406 L 165.320312 180.941406 L 165.320312 185.90625 L 170.300781 185.90625 L 170.300781 180.941406 "/>
<path style=" stroke:none;fill-rule:nonzero;fill:rgb(23.139954%,39.219666%,57.249451%);fill-opacity:1;" d="M 180.265625 185.90625 L 180.265625 180.941406 L 175.285156 180.941406 L 175.285156 185.90625 L 180.265625 185.90625 "/>
<path style=" stroke:none;fill-rule:nonzero;fill:rgb(23.139954%,39.219666%,57.249451%);fill-opacity:1;" d="M 200.195312 200.8125 L 195.210938 200.8125 L 195.210938 205.78125 L 200.195312 205.78125 L 200.195312 200.8125 "/>
<path style=" stroke:none;fill-rule:nonzero;fill:rgb(23.139954%,39.219666%,57.249451%);fill-opacity:1;" d="M 195.210938 215.71875 L 200.195312 215.71875 L 200.195312 210.75 L 195.210938 210.75 L 195.210938 215.71875 "/>
<path style=" stroke:none;fill-rule:nonzero;fill:rgb(23.139954%,39.219666%,57.249451%);fill-opacity:1;" d="M 190.230469 210.75 L 185.246094 210.75 L 185.246094 215.71875 L 190.230469 215.71875 L 190.230469 210.75 "/>
<path style=" stroke:none;fill-rule:nonzero;fill:rgb(23.139954%,39.219666%,57.249451%);fill-opacity:1;" d="M 180.265625 210.75 L 175.285156 210.75 L 175.285156 215.71875 L 180.265625 215.71875 L 180.265625 210.75 "/>
<path style=" stroke:none;fill-rule:nonzero;fill:rgb(23.139954%,39.219666%,57.249451%);fill-opacity:1;" d="M 170.300781 190.875 L 165.320312 190.875 L 165.320312 195.84375 L 170.300781 195.84375 L 170.300781 190.875 "/>
<path style=" stroke:none;fill-rule:nonzero;fill:rgb(23.139954%,39.219666%,57.249451%);fill-opacity:1;" d="M 170.300781 200.8125 L 165.320312 200.8125 L 165.320312 205.78125 L 170.300781 205.78125 L 170.300781 200.8125 "/>
<path style=" stroke:none;fill-rule:nonzero;fill:rgb(23.139954%,39.219666%,57.249451%);fill-opacity:1;" d="M 165.320312 215.71875 L 170.300781 215.71875 L 170.300781 210.75 L 165.320312 210.75 L 165.320312 215.71875 "/>
<path style=" stroke:none;fill-rule:nonzero;fill:rgb(23.139954%,39.219666%,57.249451%);fill-opacity:1;" d="M 195.210938 183.421875 C 195.210938 176.574219 200.796875 171.003906 207.667969 171.003906 C 214.535156 171.003906 220.121094 176.574219 220.121094 183.421875 C 220.121094 190.273438 214.535156 195.84375 207.667969 195.84375 C 200.796875 195.84375 195.210938 190.273438 195.210938 183.421875 Z M 225.105469 183.421875 C 225.105469 173.835938 217.28125 166.035156 207.667969 166.035156 C 198.054688 166.035156 190.230469 173.835938 190.230469 183.421875 C 190.230469 193.011719 198.054688 200.8125 207.667969 200.8125 C 217.28125 200.8125 225.105469 193.011719 225.105469 183.421875 "/>
<path style=" stroke:none;fill-rule:nonzero;fill:rgb(23.139954%,39.219666%,57.249451%);fill-opacity:1;" d="M 185.246094 235.59375 L 150.375 235.59375 L 150.375 240.558594 L 185.246094 240.558594 L 185.246094 235.59375 "/>
<path style=" stroke:none;fill-rule:nonzero;fill:rgb(23.139954%,39.219666%,57.249451%);fill-opacity:1;" d="M 185.246094 245.527344 L 150.375 245.527344 L 150.375 250.496094 L 185.246094 250.496094 L 185.246094 245.527344 "/>
<path style=" stroke:none;fill-rule:nonzero;fill:rgb(23.139954%,39.219666%,57.249451%);fill-opacity:1;" d="M 185.246094 255.464844 L 150.375 255.464844 L 150.375 260.433594 L 185.246094 260.433594 L 185.246094 255.464844 "/>
<path style=" stroke:none;fill-rule:nonzero;fill:rgb(23.139954%,39.219666%,57.249451%);fill-opacity:1;" d="M 150.375 270.371094 L 185.246094 270.371094 L 185.246094 265.402344 L 150.375 265.402344 L 150.375 270.371094 "/>
</g>
</svg>
