<?xml version="1.0" encoding="UTF-8"?>
<svg xmlns="http://www.w3.org/2000/svg" xmlns:xlink="http://www.w3.org/1999/xlink" width="375pt" height="374.999991pt" viewBox="0 0 375 374.999991" version="1.2">
<defs>
<clipPath id="clip1">
  <path d="M 171 252 L 207 252 L 207 262.5 L 171 262.5 Z M 171 252 "/>
</clipPath>
<clipPath id="clip2">
  <path d="M 187 112.5 L 191 112.5 L 191 132 L 187 132 Z M 187 112.5 "/>
</clipPath>
<clipPath id="clip3">
  <path d="M 229 181 L 249.816406 181 L 249.816406 184 L 229 184 Z M 229 181 "/>
</clipPath>
<clipPath id="clip4">
  <path d="M 125.316406 181 L 146 181 L 146 184 L 125.316406 184 Z M 125.316406 181 "/>
</clipPath>
</defs>
<g id="surface1">
<path style=" stroke:none;fill-rule:nonzero;fill:rgb(54.508972%,81.959534%,93.728638%);fill-opacity:1;" d="M 227.644531 178.351562 C 227.644531 156.484375 209.644531 138.824219 187.640625 139.34375 C 166.351562 139.847656 149.238281 157.617188 149.523438 178.886719 C 149.675781 190.128906 154.589844 200.21875 162.335938 207.238281 C 168.570312 212.890625 172.269531 220.804688 172.269531 229.214844 L 172.269531 238.109375 L 204.898438 238.109375 L 204.898438 229.460938 C 204.898438 220.929688 208.628906 212.894531 214.933594 207.140625 C 222.746094 200.007812 227.644531 189.753906 227.644531 178.351562 "/>
<path style=" stroke:none;fill-rule:nonzero;fill:rgb(21.569824%,25.099182%,30.589294%);fill-opacity:1;" d="M 227.644531 178.351562 L 229.085938 178.351562 C 229.085938 156 210.957031 137.890625 188.582031 137.890625 C 188.257812 137.890625 187.925781 137.894531 187.601562 137.902344 C 176.652344 138.160156 166.765625 142.824219 159.628906 150.144531 C 152.488281 157.457031 148.082031 167.449219 148.082031 178.355469 L 148.082031 178.910156 L 148.082031 178.902344 C 148.238281 190.558594 153.335938 201.03125 161.371094 208.304688 C 167.316406 213.703125 170.820312 221.226562 170.820312 229.214844 L 170.820312 238.109375 C 170.820312 238.492188 170.972656 238.863281 171.246094 239.132812 C 171.515625 239.398438 171.886719 239.550781 172.269531 239.550781 L 204.898438 239.550781 C 205.28125 239.550781 205.652344 239.398438 205.917969 239.132812 C 206.1875 238.863281 206.339844 238.492188 206.339844 238.109375 L 206.339844 229.460938 C 206.339844 221.351562 209.890625 213.703125 215.90625 208.203125 C 224 200.8125 229.085938 190.167969 229.085938 178.351562 L 226.203125 178.351562 C 226.203125 189.335938 221.488281 199.203125 213.957031 206.074219 C 207.378906 212.089844 203.457031 220.503906 203.457031 229.460938 L 203.457031 236.667969 L 173.710938 236.667969 L 173.710938 229.214844 C 173.710938 220.375 169.832031 212.078125 163.308594 206.167969 C 155.84375 199.402344 151.113281 189.691406 150.964844 178.867188 L 150.964844 178.355469 C 150.964844 168.238281 155.054688 158.964844 161.695312 152.15625 C 168.335938 145.351562 177.507812 141.023438 187.667969 140.78125 C 187.972656 140.777344 188.28125 140.769531 188.582031 140.769531 C 198.976562 140.777344 208.371094 144.976562 215.183594 151.777344 C 221.992188 158.582031 226.203125 167.964844 226.203125 178.351562 L 227.644531 178.351562 "/>
<path style=" stroke:none;fill-rule:nonzero;fill:rgb(54.508972%,81.959534%,93.728638%);fill-opacity:1;" d="M 227.644531 178.351562 C 227.644531 156.484375 209.644531 138.824219 187.640625 139.34375 C 166.351562 139.847656 149.238281 157.617188 149.523438 178.886719 C 149.675781 190.128906 154.589844 200.21875 162.335938 207.238281 C 168.570312 212.890625 172.269531 220.804688 172.269531 229.214844 L 172.269531 238.109375 L 204.898438 238.109375 L 204.898438 229.460938 C 204.898438 220.929688 208.628906 212.894531 214.933594 207.140625 C 222.746094 200.007812 227.644531 189.753906 227.644531 178.351562 "/>
<path style=" stroke:none;fill-rule:nonzero;fill:rgb(21.569824%,25.099182%,30.589294%);fill-opacity:1;" d="M 227.644531 178.351562 L 229.085938 178.351562 C 229.085938 156 210.957031 137.890625 188.582031 137.890625 C 188.257812 137.890625 187.925781 137.894531 187.601562 137.902344 C 176.652344 138.160156 166.765625 142.824219 159.628906 150.144531 C 152.488281 157.457031 148.082031 167.449219 148.082031 178.355469 L 148.082031 178.910156 L 148.082031 178.902344 C 148.238281 190.558594 153.335938 201.03125 161.371094 208.304688 C 167.316406 213.703125 170.820312 221.226562 170.820312 229.214844 L 170.820312 238.109375 C 170.820312 238.492188 170.972656 238.863281 171.246094 239.132812 C 171.515625 239.398438 171.886719 239.550781 172.269531 239.550781 L 204.898438 239.550781 C 205.28125 239.550781 205.652344 239.398438 205.917969 239.132812 C 206.1875 238.863281 206.339844 238.492188 206.339844 238.109375 L 206.339844 229.460938 C 206.339844 221.351562 209.890625 213.703125 215.90625 208.203125 C 224 200.8125 229.085938 190.167969 229.085938 178.351562 L 226.203125 178.351562 C 226.203125 189.335938 221.488281 199.203125 213.957031 206.074219 C 207.378906 212.089844 203.457031 220.503906 203.457031 229.460938 L 203.457031 236.667969 L 173.710938 236.667969 L 173.710938 229.214844 C 173.710938 220.375 169.832031 212.078125 163.308594 206.167969 C 155.84375 199.402344 151.113281 189.691406 150.964844 178.867188 L 150.964844 178.355469 C 150.964844 168.238281 155.054688 158.964844 161.695312 152.15625 C 168.335938 145.351562 177.507812 141.023438 187.667969 140.78125 C 187.972656 140.777344 188.28125 140.769531 188.582031 140.769531 C 198.976562 140.777344 208.371094 144.976562 215.183594 151.777344 C 221.992188 158.582031 226.203125 167.964844 226.203125 178.351562 L 227.644531 178.351562 "/>
<path style=" stroke:none;fill-rule:nonzero;fill:rgb(25.099182%,46.669006%,76.858521%);fill-opacity:1;" d="M 193.761719 236.667969 L 173.710938 236.667969 L 173.710938 229.214844 C 173.710938 220.375 169.832031 212.078125 163.308594 206.167969 C 155.84375 199.402344 151.113281 189.691406 150.964844 178.867188 L 150.964844 178.355469 C 150.964844 168.238281 155.054688 158.964844 161.695312 152.15625 C 168.335938 145.351562 177.507812 141.023438 187.667969 140.78125 C 187.972656 140.777344 188.28125 140.769531 188.582031 140.769531 C 189.074219 140.769531 189.570312 140.78125 190.0625 140.800781 C 186.574219 155.8125 184.019531 171.046875 183.582031 186.441406 C 183.09375 203.742188 185.648438 221.453125 193.761719 236.667969 "/>
<path style=" stroke:none;fill-rule:nonzero;fill:rgb(23.139954%,39.219666%,57.249451%);fill-opacity:1;" d="M 194.550781 238.109375 L 172.269531 238.109375 L 172.269531 229.214844 C 172.269531 220.804688 168.570312 212.890625 162.335938 207.238281 C 154.589844 200.21875 149.675781 190.128906 149.523438 178.886719 C 149.238281 157.617188 166.351562 139.847656 187.640625 139.34375 C 187.886719 139.335938 188.132812 139.335938 188.378906 139.335938 C 189.058594 139.335938 189.730469 139.355469 190.394531 139.382812 C 190.289062 139.855469 190.171875 140.332031 190.0625 140.800781 C 189.570312 140.78125 189.074219 140.769531 188.582031 140.769531 C 188.28125 140.769531 187.972656 140.777344 187.667969 140.78125 C 177.507812 141.023438 168.335938 145.351562 161.695312 152.15625 C 155.054688 158.964844 150.964844 168.238281 150.964844 178.355469 L 150.964844 178.867188 C 151.113281 189.691406 155.84375 199.402344 163.308594 206.167969 C 169.832031 212.078125 173.710938 220.375 173.710938 229.214844 L 173.710938 236.667969 L 193.761719 236.667969 C 194.019531 237.152344 194.277344 237.632812 194.550781 238.109375 "/>
<path style=" stroke:none;fill-rule:nonzero;fill:rgb(21.569824%,25.099182%,30.589294%);fill-opacity:1;" d="M 183.777344 237.832031 L 174.625 191.480469 C 174.492188 190.832031 173.863281 190.410156 173.214844 190.539062 C 172.570312 190.667969 172.144531 191.296875 172.273438 191.945312 L 181.433594 238.296875 C 181.558594 238.945312 182.1875 239.367188 182.835938 239.238281 C 183.484375 239.109375 183.90625 238.480469 183.777344 237.832031 "/>
<path style=" stroke:none;fill-rule:nonzero;fill:rgb(21.569824%,25.099182%,30.589294%);fill-opacity:1;" d="M 196.175781 238.296875 L 205.328125 191.945312 C 205.457031 191.296875 205.035156 190.667969 204.386719 190.539062 C 203.738281 190.410156 203.109375 190.832031 202.984375 191.480469 L 193.824219 237.832031 C 193.695312 238.480469 194.121094 239.109375 194.769531 239.238281 C 195.414062 239.367188 196.046875 238.945312 196.175781 238.296875 "/>
<path style=" stroke:none;fill-rule:nonzero;fill:rgb(100%,100%,100%);fill-opacity:1;" d="M 204.722656 254.1875 L 172.34375 254.1875 L 172.214844 238.109375 L 204.851562 238.109375 L 204.722656 254.1875 "/>
<path style=" stroke:none;fill-rule:nonzero;fill:rgb(21.569824%,25.099182%,30.589294%);fill-opacity:1;" d="M 204.722656 254.1875 L 204.722656 252.746094 L 173.777344 252.746094 L 173.667969 239.550781 L 203.398438 239.550781 L 203.28125 254.171875 L 204.722656 254.1875 L 204.722656 252.746094 L 204.722656 254.1875 L 206.164062 254.199219 L 206.292969 238.121094 C 206.300781 237.738281 206.148438 237.367188 205.875 237.09375 C 205.605469 236.820312 205.234375 236.667969 204.851562 236.667969 L 172.214844 236.667969 C 171.832031 236.667969 171.460938 236.820312 171.191406 237.09375 C 170.921875 237.367188 170.773438 237.738281 170.773438 238.121094 L 170.902344 254.199219 C 170.910156 254.992188 171.554688 255.625 172.34375 255.625 L 204.722656 255.625 C 205.515625 255.625 206.160156 254.992188 206.164062 254.199219 L 204.722656 254.1875 "/>
<path style=" stroke:none;fill-rule:nonzero;fill:rgb(100%,100%,100%);fill-opacity:1;" d="M 172.464844 254.25 C 173.316406 258.230469 176.84375 261.078125 180.917969 261.078125 L 196.152344 261.078125 C 200.230469 261.078125 203.75 258.230469 204.605469 254.25 L 172.464844 254.25 "/>
<g clip-path="url(#clip1)" clip-rule="nonzero">
<path style=" stroke:none;fill-rule:nonzero;fill:rgb(21.569824%,25.099182%,30.589294%);fill-opacity:1;" d="M 172.464844 254.25 L 171.054688 254.550781 C 172.050781 259.195312 176.160156 262.519531 180.917969 262.519531 L 196.152344 262.519531 C 200.914062 262.519531 205.023438 259.195312 206.015625 254.550781 C 206.105469 254.125 206 253.6875 205.730469 253.34375 C 205.453125 253.003906 205.046875 252.808594 204.605469 252.808594 L 172.464844 252.808594 C 172.027344 252.808594 171.613281 253.003906 171.34375 253.34375 C 171.066406 253.6875 170.960938 254.125 171.054688 254.550781 L 172.464844 254.25 L 172.464844 255.691406 L 204.605469 255.691406 L 204.605469 254.25 L 203.199219 253.949219 C 202.484375 257.265625 199.546875 259.636719 196.152344 259.636719 L 180.917969 259.636719 C 177.519531 259.636719 174.582031 257.265625 173.875 253.949219 L 172.464844 254.25 L 172.464844 255.691406 L 172.464844 254.25 "/>
</g>
<path style=" stroke:none;fill-rule:nonzero;fill:rgb(21.569824%,25.099182%,30.589294%);fill-opacity:1;" d="M 176.011719 200.925781 L 182.429688 193.65625 L 187.785156 201.476562 C 187.996094 201.789062 188.339844 201.976562 188.714844 201.996094 C 189.085938 202.011719 189.445312 201.859375 189.6875 201.570312 L 196.363281 193.65625 L 201.519531 200.828125 C 201.90625 201.363281 202.65625 201.488281 203.191406 201.105469 C 203.734375 200.71875 203.851562 199.972656 203.46875 199.4375 L 197.410156 191.015625 C 197.191406 190.714844 196.851562 190.535156 196.480469 190.515625 C 196.117188 190.503906 195.757812 190.664062 195.519531 190.945312 L 188.867188 198.832031 L 183.535156 191.039062 C 183.328125 190.734375 182.988281 190.539062 182.625 190.515625 C 182.253906 190.5 181.894531 190.644531 181.652344 190.921875 L 174.210938 199.34375 C 173.777344 199.835938 173.824219 200.59375 174.316406 201.03125 C 174.816406 201.464844 175.570312 201.417969 176.011719 200.925781 "/>
<g clip-path="url(#clip2)" clip-rule="nonzero">
<path style=" stroke:none;fill-rule:nonzero;fill:rgb(21.569824%,25.099182%,30.589294%);fill-opacity:1;" d="M 190.78125 129.992188 L 190.78125 113.980469 C 190.78125 113.175781 190.128906 112.523438 189.316406 112.523438 C 188.511719 112.523438 187.855469 113.175781 187.855469 113.980469 L 187.855469 129.992188 C 187.855469 130.796875 188.511719 131.453125 189.316406 131.453125 C 190.128906 131.453125 190.78125 130.796875 190.78125 129.992188 "/>
</g>
<path style=" stroke:none;fill-rule:nonzero;fill:rgb(21.569824%,25.099182%,30.589294%);fill-opacity:1;" d="M 210.515625 133.664062 L 220.304688 120.988281 C 220.796875 120.347656 220.675781 119.433594 220.039062 118.941406 C 219.402344 118.445312 218.484375 118.566406 217.992188 119.203125 L 208.199219 131.878906 C 207.707031 132.523438 207.832031 133.4375 208.464844 133.933594 C 209.109375 134.421875 210.027344 134.304688 210.515625 133.664062 "/>
<path style=" stroke:none;fill-rule:nonzero;fill:rgb(21.569824%,25.099182%,30.589294%);fill-opacity:1;" d="M 172.214844 131.878906 L 162.433594 119.203125 C 161.9375 118.566406 161.019531 118.445312 160.378906 118.941406 C 159.742188 119.433594 159.625 120.347656 160.117188 120.988281 L 169.902344 133.664062 C 170.398438 134.304688 171.316406 134.421875 171.949219 133.933594 C 172.59375 133.4375 172.710938 132.523438 172.214844 131.878906 "/>
<path style=" stroke:none;fill-rule:nonzero;fill:rgb(21.569824%,25.099182%,30.589294%);fill-opacity:1;" d="M 224.738281 148.179688 L 238.09375 141.066406 C 238.804688 140.683594 239.070312 139.800781 238.695312 139.089844 C 238.316406 138.378906 237.429688 138.109375 236.714844 138.488281 L 223.359375 145.605469 C 222.648438 145.988281 222.382812 146.867188 222.757812 147.582031 C 223.136719 148.292969 224.023438 148.554688 224.738281 148.179688 "/>
<path style=" stroke:none;fill-rule:nonzero;fill:rgb(21.569824%,25.099182%,30.589294%);fill-opacity:1;" d="M 157.058594 142.933594 L 143.699219 135.820312 C 142.992188 135.445312 142.105469 135.707031 141.726562 136.421875 C 141.347656 137.132812 141.617188 138.011719 142.328125 138.394531 L 155.6875 145.511719 C 156.398438 145.894531 157.28125 145.621094 157.65625 144.910156 C 158.039062 144.199219 157.769531 143.316406 157.058594 142.933594 "/>
<path style=" stroke:none;fill-rule:nonzero;fill:rgb(21.569824%,25.099182%,30.589294%);fill-opacity:1;" d="M 230.453125 166.132812 L 245.585938 164.351562 C 246.386719 164.257812 246.964844 163.53125 246.871094 162.734375 C 246.777344 161.933594 246.050781 161.355469 245.25 161.453125 L 230.109375 163.234375 C 229.3125 163.328125 228.738281 164.050781 228.828125 164.851562 C 228.921875 165.648438 229.652344 166.226562 230.453125 166.132812 "/>
<path style=" stroke:none;fill-rule:nonzero;fill:rgb(21.569824%,25.099182%,30.589294%);fill-opacity:1;" d="M 145.855469 161.453125 L 130.71875 159.675781 C 129.917969 159.582031 129.191406 160.152344 129.09375 160.953125 C 129 161.757812 129.578125 162.480469 130.378906 162.574219 L 145.511719 164.351562 C 146.3125 164.445312 147.042969 163.875 147.136719 163.074219 C 147.234375 162.273438 146.660156 161.546875 145.855469 161.453125 "/>
<g clip-path="url(#clip3)" clip-rule="nonzero">
<path style=" stroke:none;fill-rule:nonzero;fill:rgb(21.569824%,25.099182%,30.589294%);fill-opacity:1;" d="M 231.171875 183.929688 L 248.089844 183.929688 C 248.894531 183.929688 249.554688 183.277344 249.554688 182.472656 C 249.554688 181.667969 248.894531 181.015625 248.089844 181.015625 L 231.171875 181.015625 C 230.363281 181.015625 229.710938 181.667969 229.710938 182.472656 C 229.710938 183.277344 230.363281 183.929688 231.171875 183.929688 "/>
</g>
<g clip-path="url(#clip4)" clip-rule="nonzero">
<path style=" stroke:none;fill-rule:nonzero;fill:rgb(21.569824%,25.099182%,30.589294%);fill-opacity:1;" d="M 126.988281 183.929688 L 143.90625 183.929688 C 144.714844 183.929688 145.367188 183.277344 145.367188 182.472656 C 145.367188 181.667969 144.714844 181.015625 143.90625 181.015625 L 126.988281 181.015625 C 126.183594 181.015625 125.523438 181.667969 125.523438 182.472656 C 125.523438 183.277344 126.183594 183.929688 126.988281 183.929688 "/>
</g>
<path style=" stroke:none;fill-rule:nonzero;fill:rgb(21.569824%,25.099182%,30.589294%);fill-opacity:1;" d="M 173.351562 247.753906 L 193.367188 247.753906 C 194.179688 247.753906 194.839844 247.09375 194.839844 246.28125 C 194.839844 245.472656 194.179688 244.8125 193.367188 244.8125 L 173.351562 244.8125 C 172.539062 244.8125 171.878906 245.472656 171.878906 246.28125 C 171.878906 247.09375 172.539062 247.753906 173.351562 247.753906 "/>
</g>
</svg>
