<?xml version="1.0" encoding="UTF-8"?>
<svg xmlns="http://www.w3.org/2000/svg" xmlns:xlink="http://www.w3.org/1999/xlink" width="375pt" height="374.999991pt" viewBox="0 0 375 374.999991" version="1.2">
<defs>
<clipPath id="clip1">
  <path d="M 287 171 L 337.839844 171 L 337.839844 179 L 287 179 Z M 287 171 "/>
</clipPath>
</defs>
<g id="surface1">
<path style=" stroke:none;fill-rule:nonzero;fill:rgb(54.508972%,81.959534%,93.728638%);fill-opacity:1;" d="M 282.40625 164.625 C 282.40625 109.957031 237.402344 65.8125 182.390625 67.105469 C 129.175781 68.371094 86.394531 112.792969 87.101562 165.964844 C 87.484375 194.070312 99.773438 219.296875 119.140625 236.847656 C 134.726562 250.976562 143.96875 270.761719 143.96875 291.78125 L 143.96875 314.023438 L 225.542969 314.023438 L 225.542969 292.398438 C 225.542969 271.070312 234.871094 250.988281 250.632812 236.597656 C 270.164062 218.765625 282.40625 193.128906 282.40625 164.625 "/>
<path style=" stroke:none;fill-rule:nonzero;fill:rgb(21.569824%,25.099182%,30.589294%);fill-opacity:1;" d="M 282.40625 164.625 L 286.011719 164.625 C 286.011719 108.75 240.683594 63.476562 184.746094 63.476562 C 183.9375 63.476562 183.113281 63.488281 182.304688 63.503906 C 154.929688 64.152344 130.207031 75.808594 112.371094 94.109375 C 94.519531 112.398438 83.496094 137.371094 83.496094 164.640625 L 83.496094 166.023438 L 83.496094 166.007812 C 83.894531 195.144531 96.636719 221.324219 116.726562 239.507812 C 131.589844 253.003906 140.347656 271.820312 140.347656 291.78125 L 140.347656 314.023438 C 140.347656 314.980469 140.730469 315.90625 141.40625 316.582031 C 142.082031 317.242188 143.011719 317.625 143.96875 317.625 L 225.542969 317.625 C 226.5 317.625 227.425781 317.242188 228.089844 316.582031 C 228.765625 315.90625 229.148438 314.980469 229.148438 314.023438 L 229.148438 292.398438 C 229.148438 272.128906 238.023438 253.003906 253.0625 239.257812 C 273.296875 220.78125 286.011719 194.175781 286.011719 164.625 L 278.800781 164.625 C 278.800781 192.085938 267.015625 216.753906 248.191406 233.9375 C 231.738281 248.976562 221.9375 270.011719 221.9375 292.398438 L 221.9375 310.421875 L 147.574219 310.421875 L 147.574219 291.78125 C 147.574219 269.6875 137.875 248.945312 121.566406 234.171875 C 102.90625 217.253906 91.074219 192.984375 90.707031 165.921875 L 90.707031 164.640625 C 90.707031 139.34375 100.933594 116.160156 117.535156 99.136719 C 134.136719 82.128906 157.066406 71.308594 182.464844 70.707031 C 183.230469 70.691406 183.996094 70.679688 184.746094 70.679688 C 210.738281 70.691406 234.226562 81.1875 251.253906 98.195312 C 268.28125 115.203125 278.800781 138.667969 278.800781 164.625 L 282.40625 164.625 "/>
<path style=" stroke:none;fill-rule:nonzero;fill:rgb(54.508972%,81.959534%,93.728638%);fill-opacity:1;" d="M 282.40625 164.625 C 282.40625 109.957031 237.402344 65.8125 182.390625 67.105469 C 129.175781 68.371094 86.394531 112.792969 87.101562 165.964844 C 87.484375 194.070312 99.773438 219.296875 119.140625 236.847656 C 134.726562 250.976562 143.96875 270.761719 143.96875 291.78125 L 143.96875 314.023438 L 225.542969 314.023438 L 225.542969 292.398438 C 225.542969 271.070312 234.871094 250.988281 250.632812 236.597656 C 270.164062 218.765625 282.40625 193.128906 282.40625 164.625 "/>
<path style=" stroke:none;fill-rule:nonzero;fill:rgb(21.569824%,25.099182%,30.589294%);fill-opacity:1;" d="M 282.40625 164.625 L 286.011719 164.625 C 286.011719 108.75 240.683594 63.476562 184.746094 63.476562 C 183.9375 63.476562 183.113281 63.488281 182.304688 63.503906 C 154.929688 64.152344 130.207031 75.808594 112.371094 94.109375 C 94.519531 112.398438 83.496094 137.371094 83.496094 164.640625 L 83.496094 166.023438 L 83.496094 166.007812 C 83.894531 195.144531 96.636719 221.324219 116.726562 239.507812 C 131.589844 253.003906 140.347656 271.820312 140.347656 291.78125 L 140.347656 314.023438 C 140.347656 314.980469 140.730469 315.90625 141.40625 316.582031 C 142.082031 317.242188 143.011719 317.625 143.96875 317.625 L 225.542969 317.625 C 226.5 317.625 227.425781 317.242188 228.089844 316.582031 C 228.765625 315.90625 229.148438 314.980469 229.148438 314.023438 L 229.148438 292.398438 C 229.148438 272.128906 238.023438 253.003906 253.0625 239.257812 C 273.296875 220.78125 286.011719 194.175781 286.011719 164.625 L 278.800781 164.625 C 278.800781 192.085938 267.015625 216.753906 248.191406 233.9375 C 231.738281 248.976562 221.9375 270.011719 221.9375 292.398438 L 221.9375 310.421875 L 147.574219 310.421875 L 147.574219 291.78125 C 147.574219 269.6875 137.875 248.945312 121.566406 234.171875 C 102.90625 217.253906 91.074219 192.984375 90.707031 165.921875 L 90.707031 164.640625 C 90.707031 139.34375 100.933594 116.160156 117.535156 99.136719 C 134.136719 82.128906 157.066406 71.308594 182.464844 70.707031 C 183.230469 70.691406 183.996094 70.679688 184.746094 70.679688 C 210.738281 70.691406 234.226562 81.1875 251.253906 98.195312 C 268.28125 115.203125 278.800781 138.667969 278.800781 164.625 L 282.40625 164.625 "/>
<path style=" stroke:none;fill-rule:nonzero;fill:rgb(25.099182%,46.669006%,76.858521%);fill-opacity:1;" d="M 197.699219 310.421875 L 147.574219 310.421875 L 147.574219 291.78125 C 147.574219 269.6875 137.875 248.945312 121.566406 234.171875 C 102.90625 217.253906 91.074219 192.984375 90.707031 165.921875 L 90.707031 164.640625 C 90.707031 139.34375 100.933594 116.160156 117.535156 99.136719 C 134.136719 82.128906 157.066406 71.308594 182.464844 70.707031 C 183.230469 70.691406 183.996094 70.679688 184.746094 70.679688 C 185.984375 70.679688 187.21875 70.707031 188.457031 70.75 C 179.730469 108.28125 173.339844 146.367188 172.253906 184.855469 C 171.03125 228.101562 177.417969 272.378906 197.699219 310.421875 "/>
<path style=" stroke:none;fill-rule:nonzero;fill:rgb(23.139954%,39.219666%,57.249451%);fill-opacity:1;" d="M 199.671875 314.023438 L 143.96875 314.023438 L 143.96875 291.78125 C 143.96875 270.761719 134.726562 250.976562 119.140625 236.847656 C 99.773438 219.296875 87.484375 194.070312 87.101562 165.964844 C 86.394531 112.792969 129.175781 68.371094 182.390625 67.105469 C 183.011719 67.089844 183.628906 67.089844 184.246094 67.089844 C 185.9375 67.089844 187.617188 67.136719 189.28125 67.207031 C 189.015625 68.386719 188.71875 69.574219 188.457031 70.75 C 187.21875 70.707031 185.984375 70.679688 184.746094 70.679688 C 183.996094 70.679688 183.230469 70.691406 182.464844 70.707031 C 157.066406 71.308594 134.136719 82.128906 117.535156 99.136719 C 100.933594 116.160156 90.707031 139.34375 90.707031 164.640625 L 90.707031 165.921875 C 91.074219 192.984375 102.90625 217.253906 121.566406 234.171875 C 137.875 248.945312 147.574219 269.6875 147.574219 291.78125 L 147.574219 310.421875 L 197.699219 310.421875 C 198.34375 311.628906 198.992188 312.832031 199.671875 314.023438 "/>
<path style=" stroke:none;fill-rule:nonzero;fill:rgb(21.569824%,25.099182%,30.589294%);fill-opacity:1;" d="M 172.738281 313.332031 L 149.855469 197.453125 C 149.53125 195.835938 147.957031 194.777344 146.335938 195.101562 C 144.71875 195.421875 143.65625 196.996094 143.980469 198.613281 L 166.882812 314.496094 C 167.191406 316.113281 168.765625 317.167969 170.382812 316.847656 C 172.003906 316.523438 173.0625 314.949219 172.738281 313.332031 "/>
<path style=" stroke:none;fill-rule:nonzero;fill:rgb(21.569824%,25.099182%,30.589294%);fill-opacity:1;" d="M 203.730469 314.496094 L 226.617188 198.613281 C 226.941406 196.996094 225.878906 195.421875 224.261719 195.101562 C 222.644531 194.777344 221.066406 195.835938 220.757812 197.453125 L 197.859375 313.332031 C 197.535156 314.949219 198.59375 316.523438 200.214844 316.847656 C 201.832031 317.167969 203.40625 316.113281 203.730469 314.496094 "/>
<path style=" stroke:none;fill-rule:nonzero;fill:rgb(100%,100%,100%);fill-opacity:1;" d="M 225.101562 354.214844 L 144.160156 354.214844 L 143.835938 314.023438 L 225.425781 314.023438 L 225.101562 354.214844 "/>
<path style=" stroke:none;fill-rule:nonzero;fill:rgb(21.569824%,25.099182%,30.589294%);fill-opacity:1;" d="M 225.101562 354.214844 L 225.101562 350.613281 L 147.734375 350.613281 L 147.46875 317.625 L 221.789062 317.625 L 221.496094 354.183594 L 225.101562 354.214844 L 225.101562 350.613281 L 225.101562 354.214844 L 228.707031 354.242188 L 229.03125 314.054688 C 229.042969 313.097656 228.660156 312.171875 227.984375 311.480469 C 227.308594 310.804688 226.378906 310.421875 225.425781 310.421875 L 143.835938 310.421875 C 142.878906 310.421875 141.949219 310.804688 141.273438 311.480469 C 140.597656 312.171875 140.230469 313.097656 140.230469 314.054688 L 140.554688 354.242188 C 140.566406 356.226562 142.1875 357.816406 144.160156 357.816406 L 225.101562 357.816406 C 227.085938 357.816406 228.691406 356.226562 228.707031 354.242188 L 225.101562 354.214844 "/>
<path style=" stroke:none;fill-rule:nonzero;fill:rgb(100%,100%,100%);fill-opacity:1;" d="M 144.453125 354.375 C 146.585938 364.328125 155.402344 371.441406 165.585938 371.441406 L 203.671875 371.441406 C 213.871094 371.441406 222.671875 364.328125 224.804688 354.375 L 144.453125 354.375 "/>
<path style=" stroke:none;fill-rule:nonzero;fill:rgb(21.569824%,25.099182%,30.589294%);fill-opacity:1;" d="M 144.453125 354.375 L 140.933594 355.125 C 143.421875 366.738281 153.695312 375.042969 165.585938 375.042969 L 203.671875 375.042969 C 215.578125 375.042969 225.851562 366.738281 228.339844 355.125 C 228.558594 354.066406 228.292969 352.964844 227.617188 352.113281 C 226.925781 351.257812 225.910156 350.773438 224.804688 350.773438 L 144.453125 350.773438 C 143.363281 350.773438 142.332031 351.257812 141.65625 352.113281 C 140.964844 352.964844 140.699219 354.066406 140.933594 355.125 L 144.453125 354.375 L 144.453125 357.976562 L 224.804688 357.976562 L 224.804688 354.375 L 221.289062 353.625 C 219.507812 361.917969 212.164062 367.839844 203.671875 367.839844 L 165.585938 367.839844 C 157.09375 367.839844 149.75 361.917969 147.984375 353.625 L 144.453125 354.375 L 144.453125 357.976562 L 144.453125 354.375 "/>
<path style=" stroke:none;fill-rule:nonzero;fill:rgb(21.569824%,25.099182%,30.589294%);fill-opacity:1;" d="M 153.328125 221.058594 L 169.367188 202.890625 L 182.761719 222.441406 C 183.289062 223.222656 184.144531 223.691406 185.085938 223.734375 C 186.011719 223.78125 186.910156 223.398438 187.515625 222.675781 L 204.203125 202.890625 L 217.09375 220.824219 C 218.066406 222.164062 219.933594 222.472656 221.273438 221.515625 C 222.628906 220.546875 222.921875 218.679688 221.964844 217.339844 L 206.824219 196.289062 C 206.277344 195.539062 205.425781 195.085938 204.496094 195.042969 C 203.585938 195.011719 202.6875 195.410156 202.097656 196.113281 L 185.46875 215.828125 L 172.136719 196.347656 C 171.621094 195.585938 170.765625 195.101562 169.855469 195.042969 C 168.925781 194.996094 168.027344 195.363281 167.425781 196.054688 L 148.824219 217.105469 C 147.734375 218.339844 147.851562 220.238281 149.089844 221.324219 C 150.339844 222.414062 152.222656 222.296875 153.328125 221.058594 "/>
<path style=" stroke:none;fill-rule:nonzero;fill:rgb(21.569824%,25.099182%,30.589294%);fill-opacity:1;" d="M 190.25 43.734375 L 190.25 3.703125 C 190.25 1.6875 188.617188 0.0585938 186.585938 0.0585938 C 184.570312 0.0585938 182.9375 1.6875 182.9375 3.703125 L 182.9375 43.734375 C 182.9375 45.746094 184.570312 47.378906 186.585938 47.378906 C 188.617188 47.378906 190.25 45.746094 190.25 43.734375 "/>
<path style=" stroke:none;fill-rule:nonzero;fill:rgb(21.569824%,25.099182%,30.589294%);fill-opacity:1;" d="M 239.582031 52.90625 L 264.054688 21.21875 C 265.292969 19.621094 264.984375 17.328125 263.394531 16.101562 C 261.804688 14.867188 259.507812 15.164062 258.273438 16.761719 L 233.796875 48.453125 C 232.5625 50.054688 232.871094 52.347656 234.460938 53.582031 C 236.0625 54.800781 238.359375 54.507812 239.582031 52.90625 "/>
<path style=" stroke:none;fill-rule:nonzero;fill:rgb(21.569824%,25.099182%,30.589294%);fill-opacity:1;" d="M 143.835938 48.453125 L 119.375 16.761719 C 118.140625 15.164062 115.84375 14.867188 114.238281 16.101562 C 112.648438 17.328125 112.355469 19.621094 113.589844 21.21875 L 138.050781 52.90625 C 139.289062 54.507812 141.582031 54.800781 143.171875 53.582031 C 144.777344 52.347656 145.070312 50.054688 143.835938 48.453125 "/>
<path style=" stroke:none;fill-rule:nonzero;fill:rgb(21.569824%,25.099182%,30.589294%);fill-opacity:1;" d="M 275.136719 89.199219 L 308.53125 71.414062 C 310.308594 70.457031 310.972656 68.253906 310.03125 66.472656 C 309.089844 64.695312 306.867188 64.019531 305.085938 64.972656 L 271.695312 82.761719 C 269.914062 83.71875 269.25 85.921875 270.191406 87.699219 C 271.132812 89.480469 273.355469 90.140625 275.136719 89.199219 "/>
<path style=" stroke:none;fill-rule:nonzero;fill:rgb(21.569824%,25.099182%,30.589294%);fill-opacity:1;" d="M 105.9375 76.085938 L 72.546875 58.300781 C 70.78125 57.359375 68.558594 58.019531 67.617188 59.800781 C 66.660156 61.578125 67.335938 63.785156 69.117188 64.738281 L 102.511719 82.527344 C 104.289062 83.480469 106.5 82.804688 107.441406 81.027344 C 108.398438 79.25 107.71875 77.042969 105.9375 76.085938 "/>
<path style=" stroke:none;fill-rule:nonzero;fill:rgb(21.569824%,25.099182%,30.589294%);fill-opacity:1;" d="M 289.425781 134.078125 L 327.265625 129.625 C 329.265625 129.390625 330.707031 127.582031 330.472656 125.582031 C 330.238281 123.582031 328.425781 122.144531 326.425781 122.378906 L 288.574219 126.832031 C 286.574219 127.066406 285.144531 128.875 285.367188 130.875 C 285.601562 132.875 287.425781 134.316406 289.425781 134.078125 "/>
<path style=" stroke:none;fill-rule:nonzero;fill:rgb(21.569824%,25.099182%,30.589294%);fill-opacity:1;" d="M 77.933594 122.378906 L 40.097656 117.9375 C 38.09375 117.703125 36.269531 119.128906 36.035156 121.128906 C 35.800781 123.144531 37.242188 124.949219 39.242188 125.1875 L 77.078125 129.625 C 79.082031 129.859375 80.90625 128.433594 81.140625 126.4375 C 81.375 124.4375 79.949219 122.613281 77.933594 122.378906 "/>
<g clip-path="url(#clip1)" clip-rule="nonzero">
<path style=" stroke:none;fill-rule:nonzero;fill:rgb(21.569824%,25.099182%,30.589294%);fill-opacity:1;" d="M 291.222656 178.578125 L 333.519531 178.578125 C 335.535156 178.578125 337.183594 176.945312 337.183594 174.929688 C 337.183594 172.917969 335.535156 171.285156 333.519531 171.285156 L 291.222656 171.285156 C 289.207031 171.285156 287.574219 172.917969 287.574219 174.929688 C 287.574219 176.945312 289.207031 178.578125 291.222656 178.578125 "/>
</g>
<path style=" stroke:none;fill-rule:nonzero;fill:rgb(21.569824%,25.099182%,30.589294%);fill-opacity:1;" d="M 30.765625 178.578125 L 73.0625 178.578125 C 75.078125 178.578125 76.710938 176.945312 76.710938 174.929688 C 76.710938 172.917969 75.078125 171.285156 73.0625 171.285156 L 30.765625 171.285156 C 28.75 171.285156 27.101562 172.917969 27.101562 174.929688 C 27.101562 176.945312 28.75 178.578125 30.765625 178.578125 "/>
<path style=" stroke:none;fill-rule:nonzero;fill:rgb(21.569824%,25.099182%,30.589294%);fill-opacity:1;" d="M 146.675781 338.132812 L 196.710938 338.132812 C 198.742188 338.132812 200.390625 336.484375 200.390625 334.457031 C 200.390625 332.429688 198.742188 330.78125 196.710938 330.78125 L 146.675781 330.78125 C 144.644531 330.78125 142.996094 332.429688 142.996094 334.457031 C 142.996094 336.484375 144.644531 338.132812 146.675781 338.132812 "/>
</g>
</svg>
