<?xml version="1.0" encoding="UTF-8"?>
<svg xmlns="http://www.w3.org/2000/svg" xmlns:xlink="http://www.w3.org/1999/xlink" width="375pt" height="374.999991pt" viewBox="0 0 375 374.999991" version="1.2">
<defs>
<clipPath id="clip1">
  <path d="M 0 187 L 188 187 L 188 373.773438 L 0 373.773438 Z M 0 187 "/>
</clipPath>
<clipPath id="clip2">
  <path d="M 186 1.023438 L 375 1.023438 L 375 188 L 186 188 Z M 186 1.023438 "/>
</clipPath>
</defs>
<g id="surface1">
<g clip-path="url(#clip1)" clip-rule="nonzero">
<path style=" stroke:none;fill-rule:nonzero;fill:rgb(21.569824%,25.099182%,30.589294%);fill-opacity:1;" d="M 20.046875 279.25 C 23.546875 279.25 26.796875 278.332031 29.636719 276.714844 C 30.726562 276.09375 31.742188 275.363281 32.699219 274.554688 C 35.351562 273.015625 39.296875 271.546875 42.664062 273.597656 L 42.664062 318.722656 C 42.664062 326.351562 48.847656 332.535156 56.480469 332.535156 L 102.195312 332.535156 C 103.566406 335.503906 102.515625 338.789062 101.199219 341.230469 C 97.964844 344.6875 95.953125 349.328125 95.953125 354.457031 C 95.953125 365.128906 104.640625 373.792969 115.316406 373.792969 C 126.011719 373.792969 134.679688 365.128906 134.679688 354.457031 C 134.679688 350.964844 133.738281 347.695312 132.140625 344.859375 C 131.5 343.769531 130.785156 342.753906 129.980469 341.816406 C 128.53125 339.335938 127.160156 335.726562 128.664062 332.535156 L 174.152344 332.535156 C 181.785156 332.535156 187.96875 326.351562 187.96875 318.722656 L 187.96875 273.597656 C 184.605469 271.546875 180.65625 273.015625 178.007812 274.554688 C 177.066406 275.363281 176.035156 276.09375 174.941406 276.714844 C 172.125 278.332031 168.851562 279.25 165.355469 279.25 C 154.660156 279.25 145.996094 270.589844 145.996094 259.917969 C 145.996094 249.226562 154.660156 240.566406 165.355469 240.566406 C 170.46875 240.566406 175.113281 242.558594 178.589844 245.789062 C 181.222656 247.199219 184.847656 248.34375 187.96875 246.429688 L 187.96875 201.09375 C 187.96875 193.484375 181.785156 187.304688 174.152344 187.304688 L 129.019531 187.304688 C 126.953125 190.667969 128.417969 194.613281 129.980469 197.261719 C 130.785156 198.21875 131.5 199.234375 132.140625 200.324219 C 133.738281 203.140625 134.679688 206.410156 134.679688 209.90625 C 134.679688 220.597656 126.011719 229.257812 115.316406 229.257812 C 104.640625 229.257812 95.953125 220.597656 95.953125 209.90625 C 95.953125 204.796875 97.964844 200.136719 101.199219 196.679688 C 102.609375 194.046875 103.738281 190.421875 101.820312 187.304688 L 56.480469 187.304688 C 48.847656 187.304688 42.664062 193.484375 42.664062 201.09375 L 42.664062 246.429688 C 39.542969 248.34375 35.914062 247.199219 33.28125 245.789062 C 29.824219 242.558594 25.160156 240.566406 20.046875 240.566406 C 9.351562 240.566406 0.6875 249.230469 0.6875 259.917969 C 0.6875 270.589844 9.351562 279.25 20.046875 279.25 "/>
</g>
<path style=" stroke:none;fill-rule:nonzero;fill:rgb(25.099182%,46.669006%,76.858521%);fill-opacity:1;" d="M 240.359375 164.589844 C 240.359375 168.082031 241.28125 171.351562 242.898438 174.171875 C 243.515625 175.261719 244.25 176.292969 245.058594 177.234375 C 246.601562 179.882812 248.085938 183.828125 246 187.191406 L 200.867188 187.191406 C 193.234375 187.191406 187.046875 193.371094 187.046875 201 L 187.046875 246.691406 C 184.097656 248.0625 180.789062 247.011719 178.34375 245.695312 C 174.886719 242.464844 170.242188 240.472656 165.128906 240.472656 C 154.433594 240.472656 145.769531 249.132812 145.769531 259.804688 C 145.769531 270.496094 154.433594 279.15625 165.128906 279.15625 C 168.609375 279.15625 171.878906 278.238281 174.71875 276.621094 C 175.808594 275.980469 176.824219 275.269531 177.761719 274.460938 C 180.242188 273.015625 183.851562 271.640625 187.046875 273.144531 L 187.046875 318.628906 C 187.046875 326.257812 193.234375 332.441406 200.867188 332.441406 L 246 332.441406 C 248.085938 329.058594 246.601562 325.113281 245.058594 322.464844 C 244.25 321.523438 243.515625 320.507812 242.898438 319.417969 C 241.28125 316.582031 240.359375 313.3125 240.359375 309.820312 C 240.359375 299.128906 249.023438 290.46875 259.703125 290.46875 C 270.398438 290.46875 279.0625 299.128906 279.0625 309.820312 C 279.0625 314.929688 277.070312 319.589844 273.820312 323.046875 C 272.410156 325.675781 271.28125 329.300781 273.21875 332.441406 L 318.558594 332.441406 C 326.191406 332.441406 332.375 326.257812 332.375 318.628906 L 332.375 273.503906 C 329.011719 271.4375 325.042969 272.902344 322.394531 274.460938 C 321.453125 275.269531 320.417969 275.980469 319.347656 276.621094 C 316.507812 278.238281 313.238281 279.15625 309.742188 279.15625 C 299.046875 279.15625 290.398438 270.496094 290.398438 259.804688 C 290.398438 249.132812 299.046875 240.472656 309.742188 240.472656 C 314.855469 240.472656 319.515625 242.464844 322.976562 245.695312 C 325.609375 247.105469 329.234375 248.25 332.375 246.316406 L 332.375 201 C 332.375 193.371094 326.191406 187.191406 318.558594 187.191406 L 273.21875 187.191406 C 271.28125 184.074219 272.410156 180.445312 273.820312 177.816406 C 277.070312 174.359375 279.0625 169.699219 279.0625 164.589844 C 279.0625 153.898438 270.398438 145.238281 259.703125 145.238281 C 249.023438 145.238281 240.359375 153.898438 240.359375 164.589844 "/>
<g clip-path="url(#clip2)" clip-rule="nonzero">
<path style=" stroke:none;fill-rule:nonzero;fill:rgb(54.508972%,81.959534%,93.728638%);fill-opacity:1;" d="M 354.761719 95.542969 C 351.265625 95.542969 348.015625 96.464844 345.175781 98.082031 C 344.085938 98.699219 343.070312 99.433594 342.132812 100.242188 C 339.460938 101.78125 335.515625 103.265625 332.148438 101.179688 L 332.148438 56.070312 C 332.148438 48.441406 325.964844 42.261719 318.332031 42.261719 L 272.636719 42.261719 C 271.246094 39.3125 272.316406 36.003906 273.613281 33.5625 C 276.863281 30.105469 278.859375 25.464844 278.859375 20.335938 C 278.859375 9.664062 270.191406 1.003906 259.496094 1.003906 C 248.800781 1.003906 240.132812 9.664062 240.132812 20.335938 C 240.132812 23.832031 241.054688 27.101562 242.691406 29.9375 C 243.3125 31.027344 244.023438 32.042969 244.851562 32.980469 C 246.300781 35.460938 247.652344 39.050781 246.167969 42.261719 L 200.660156 42.261719 C 193.027344 42.261719 186.84375 48.441406 186.84375 56.070312 L 186.84375 101.179688 C 190.207031 103.265625 194.15625 101.78125 196.824219 100.242188 C 197.761719 99.433594 198.777344 98.699219 199.867188 98.082031 C 202.6875 96.464844 205.960938 95.542969 209.457031 95.542969 C 220.152344 95.542969 228.816406 104.207031 228.816406 114.875 C 228.816406 125.566406 220.152344 134.226562 209.457031 134.226562 C 204.34375 134.226562 199.699219 132.238281 196.242188 129.003906 C 193.589844 127.597656 189.960938 126.449219 186.84375 128.367188 L 186.84375 173.683594 C 186.84375 181.308594 193.027344 187.492188 200.660156 187.492188 L 245.792969 187.492188 C 247.859375 184.128906 246.394531 180.183594 244.851562 177.535156 C 244.023438 176.59375 243.3125 175.5625 242.691406 174.472656 C 241.054688 171.652344 240.132812 168.382812 240.132812 164.890625 C 240.132812 154.199219 248.800781 145.539062 259.496094 145.539062 C 270.191406 145.539062 278.859375 154.199219 278.859375 164.890625 C 278.859375 170 276.863281 174.660156 273.613281 178.117188 C 272.203125 180.746094 271.074219 184.371094 272.992188 187.492188 L 318.332031 187.492188 C 325.964844 187.492188 332.148438 181.308594 332.148438 173.683594 L 332.148438 128.367188 C 335.289062 126.449219 338.917969 127.597656 341.546875 129.003906 C 345.007812 132.238281 349.648438 134.226562 354.761719 134.226562 C 365.460938 134.226562 374.125 125.566406 374.125 114.875 C 374.125 104.207031 365.460938 95.542969 354.761719 95.542969 "/>
</g>
<path style=" stroke:none;fill-rule:nonzero;fill:rgb(23.139954%,39.219666%,57.249451%);fill-opacity:1;" d="M 134.679688 210.207031 C 134.679688 206.710938 133.757812 203.441406 132.140625 200.625 C 131.5 199.535156 130.785156 198.519531 129.980469 197.5625 C 128.4375 194.914062 126.953125 190.96875 129.019531 187.605469 L 174.171875 187.605469 C 181.804688 187.605469 187.96875 181.40625 187.96875 173.796875 L 187.96875 128.101562 C 190.941406 126.714844 194.230469 127.785156 196.691406 129.097656 C 200.152344 132.332031 204.792969 134.320312 209.90625 134.320312 C 220.601562 134.320312 229.269531 125.660156 229.269531 114.972656 C 229.269531 104.300781 220.601562 95.636719 209.90625 95.636719 C 206.410156 95.636719 203.160156 96.558594 200.320312 98.175781 C 199.230469 98.8125 198.214844 99.527344 197.273438 100.355469 C 194.773438 101.78125 191.183594 103.152344 187.96875 101.648438 L 187.96875 56.164062 C 187.96875 48.554688 181.804688 42.355469 174.171875 42.355469 L 129.019531 42.355469 C 126.953125 45.738281 128.4375 49.683594 129.980469 52.332031 C 130.785156 53.273438 131.5 54.304688 132.140625 55.394531 C 133.757812 58.210938 134.679688 61.480469 134.679688 64.976562 C 134.679688 75.648438 126.011719 84.308594 115.335938 84.308594 C 104.640625 84.308594 95.972656 75.648438 95.972656 64.976562 C 95.972656 59.847656 97.964844 55.207031 101.199219 51.75 C 102.609375 49.121094 103.753906 45.492188 101.820312 42.355469 L 56.480469 42.355469 C 48.847656 42.355469 42.679688 48.554688 42.679688 56.164062 L 42.679688 101.292969 C 46.027344 103.359375 49.976562 101.894531 52.644531 100.355469 C 53.585938 99.527344 54.597656 98.8125 55.691406 98.175781 C 58.527344 96.558594 61.800781 95.636719 65.296875 95.636719 C 75.972656 95.636719 84.636719 104.300781 84.636719 114.972656 C 84.636719 125.660156 75.972656 134.324219 65.296875 134.324219 C 60.164062 134.324219 55.519531 132.332031 52.0625 129.097656 C 49.429688 127.691406 45.800781 126.542969 42.679688 128.480469 L 42.679688 173.796875 C 42.679688 181.40625 48.847656 187.605469 56.480469 187.605469 L 101.820312 187.605469 C 103.753906 190.722656 102.609375 194.347656 101.199219 196.980469 C 97.964844 200.4375 95.972656 205.097656 95.972656 210.207031 C 95.972656 220.894531 104.640625 229.558594 115.335938 229.558594 C 126.011719 229.558594 134.679688 220.894531 134.679688 210.207031 "/>
</g>
</svg>
