<?xml version="1.0" encoding="UTF-8"?>
<svg xmlns="http://www.w3.org/2000/svg" xmlns:xlink="http://www.w3.org/1999/xlink" width="375pt" height="374.999991pt" viewBox="0 0 375 374.999991" version="1.2">
<defs>
<clipPath id="clip1">
  <path d="M 112.5 187 L 188 187 L 188 262.160156 L 112.5 262.160156 Z M 112.5 187 "/>
</clipPath>
<clipPath id="clip2">
  <path d="M 187 112.910156 L 262.5 112.910156 L 262.5 188 L 187 188 Z M 187 112.910156 "/>
</clipPath>
</defs>
<g id="surface1">
<g clip-path="url(#clip1)" clip-rule="nonzero">
<path style=" stroke:none;fill-rule:nonzero;fill:rgb(21.569824%,25.099182%,30.589294%);fill-opacity:1;" d="M 120.519531 224.3125 C 121.917969 224.3125 123.21875 223.945312 124.355469 223.296875 C 124.789062 223.046875 125.195312 222.753906 125.578125 222.433594 C 126.640625 221.816406 128.21875 221.226562 129.566406 222.046875 L 129.566406 240.117188 C 129.566406 243.171875 132.039062 245.648438 135.089844 245.648438 L 153.378906 245.648438 C 153.925781 246.835938 153.507812 248.152344 152.980469 249.128906 C 151.6875 250.515625 150.882812 252.371094 150.882812 254.425781 C 150.882812 258.699219 154.355469 262.167969 158.625 262.167969 C 162.90625 262.167969 166.371094 258.699219 166.371094 254.425781 C 166.371094 253.027344 165.996094 251.71875 165.355469 250.582031 C 165.101562 250.144531 164.816406 249.738281 164.492188 249.363281 C 163.914062 248.371094 163.363281 246.925781 163.964844 245.648438 L 182.160156 245.648438 C 185.214844 245.648438 187.6875 243.171875 187.6875 240.117188 L 187.6875 222.046875 C 186.34375 221.226562 184.761719 221.816406 183.703125 222.433594 C 183.328125 222.753906 182.914062 223.046875 182.476562 223.296875 C 181.347656 223.945312 180.042969 224.3125 178.640625 224.3125 C 174.363281 224.3125 170.898438 220.84375 170.898438 216.570312 C 170.898438 212.292969 174.363281 208.824219 178.640625 208.824219 C 180.6875 208.824219 182.542969 209.621094 183.9375 210.914062 C 184.988281 211.480469 186.441406 211.9375 187.6875 211.171875 L 187.6875 193.019531 C 187.6875 189.972656 185.214844 187.496094 182.160156 187.496094 L 164.109375 187.496094 C 163.28125 188.84375 163.867188 190.421875 164.492188 191.484375 C 164.816406 191.867188 165.101562 192.273438 165.355469 192.710938 C 165.996094 193.839844 166.371094 195.148438 166.371094 196.546875 C 166.371094 200.828125 162.90625 204.292969 158.625 204.292969 C 154.355469 204.292969 150.882812 200.828125 150.882812 196.546875 C 150.882812 194.5 151.6875 192.632812 152.980469 191.25 C 153.542969 190.195312 153.996094 188.746094 153.226562 187.496094 L 135.089844 187.496094 C 132.039062 187.496094 129.566406 189.972656 129.566406 193.019531 L 129.566406 211.171875 C 128.316406 211.9375 126.867188 211.480469 125.8125 210.914062 C 124.429688 209.621094 122.566406 208.824219 120.519531 208.824219 C 116.242188 208.824219 112.773438 212.292969 112.773438 216.570312 C 112.773438 220.84375 116.242188 224.3125 120.519531 224.3125 "/>
</g>
<path style=" stroke:none;fill-rule:nonzero;fill:rgb(25.099182%,46.669006%,76.858521%);fill-opacity:1;" d="M 208.644531 178.402344 C 208.644531 179.800781 209.011719 181.109375 209.660156 182.238281 C 209.90625 182.675781 210.199219 183.089844 210.523438 183.464844 C 211.140625 184.523438 211.734375 186.105469 210.898438 187.453125 L 192.847656 187.453125 C 189.792969 187.453125 187.320312 189.925781 187.320312 192.980469 L 187.320312 211.277344 C 186.140625 211.824219 184.816406 211.402344 183.839844 210.878906 C 182.453125 209.582031 180.597656 208.785156 178.550781 208.785156 C 174.273438 208.785156 170.808594 212.253906 170.808594 216.527344 C 170.808594 220.808594 174.273438 224.273438 178.550781 224.273438 C 179.941406 224.273438 181.25 223.90625 182.386719 223.257812 C 182.824219 223.003906 183.230469 222.71875 183.605469 222.394531 C 184.597656 221.816406 186.042969 221.265625 187.320312 221.867188 L 187.320312 240.078125 C 187.320312 243.132812 189.792969 245.609375 192.847656 245.609375 L 210.898438 245.609375 C 211.734375 244.253906 211.140625 242.675781 210.523438 241.613281 C 210.199219 241.238281 209.90625 240.832031 209.660156 240.394531 C 209.011719 239.261719 208.644531 237.949219 208.644531 236.550781 C 208.644531 232.273438 212.109375 228.804688 216.382812 228.804688 C 220.660156 228.804688 224.125 232.273438 224.125 236.550781 C 224.125 238.597656 223.328125 240.464844 222.027344 241.847656 C 221.464844 242.902344 221.011719 244.351562 221.789062 245.609375 L 239.921875 245.609375 C 242.976562 245.609375 245.449219 243.132812 245.449219 240.078125 L 245.449219 222.011719 C 244.105469 221.183594 242.515625 221.769531 241.457031 222.394531 C 241.082031 222.71875 240.667969 223.003906 240.238281 223.257812 C 239.105469 223.90625 237.796875 224.273438 236.398438 224.273438 C 232.117188 224.273438 228.660156 220.808594 228.660156 216.527344 C 228.660156 212.253906 232.117188 208.785156 236.398438 208.785156 C 238.441406 208.785156 240.308594 209.582031 241.691406 210.878906 C 242.742188 211.441406 244.195312 211.898438 245.449219 211.125 L 245.449219 192.980469 C 245.449219 189.925781 242.976562 187.453125 239.921875 187.453125 L 221.789062 187.453125 C 221.011719 186.203125 221.464844 184.75 222.027344 183.699219 C 223.328125 182.3125 224.125 180.449219 224.125 178.402344 C 224.125 174.121094 220.660156 170.652344 216.382812 170.652344 C 212.109375 170.652344 208.644531 174.121094 208.644531 178.402344 "/>
<g clip-path="url(#clip2)" clip-rule="nonzero">
<path style=" stroke:none;fill-rule:nonzero;fill:rgb(54.508972%,81.959534%,93.728638%);fill-opacity:1;" d="M 254.40625 150.753906 C 253.007812 150.753906 251.707031 151.125 250.570312 151.769531 C 250.132812 152.019531 249.726562 152.3125 249.351562 152.636719 C 248.285156 153.253906 246.707031 153.847656 245.359375 153.011719 L 245.359375 134.949219 C 245.359375 131.894531 242.886719 129.421875 239.832031 129.421875 L 221.554688 129.421875 C 220.996094 128.242188 221.425781 126.917969 221.945312 125.9375 C 223.246094 124.554688 224.042969 122.695312 224.042969 120.640625 C 224.042969 116.371094 220.578125 112.902344 216.296875 112.902344 C 212.019531 112.902344 208.554688 116.371094 208.554688 120.640625 C 208.554688 122.042969 208.921875 123.351562 209.574219 124.488281 C 209.824219 124.921875 210.109375 125.328125 210.441406 125.707031 C 211.019531 126.699219 211.5625 128.136719 210.96875 129.421875 L 192.761719 129.421875 C 189.710938 129.421875 187.238281 131.894531 187.238281 134.949219 L 187.238281 153.011719 C 188.582031 153.847656 190.160156 153.253906 191.230469 152.636719 C 191.605469 152.3125 192.011719 152.019531 192.449219 151.769531 C 193.574219 151.125 194.882812 150.753906 196.28125 150.753906 C 200.5625 150.753906 204.027344 154.222656 204.027344 158.496094 C 204.027344 162.777344 200.5625 166.246094 196.28125 166.246094 C 194.238281 166.246094 192.378906 165.449219 190.996094 164.152344 C 189.9375 163.589844 188.484375 163.128906 187.238281 163.898438 L 187.238281 182.042969 C 187.238281 185.097656 189.710938 187.570312 192.761719 187.570312 L 210.816406 187.570312 C 211.644531 186.226562 211.058594 184.644531 210.441406 183.585938 C 210.109375 183.207031 209.824219 182.792969 209.574219 182.359375 C 208.921875 181.230469 208.554688 179.921875 208.554688 178.523438 C 208.554688 174.242188 212.019531 170.773438 216.296875 170.773438 C 220.578125 170.773438 224.042969 174.242188 224.042969 178.523438 C 224.042969 180.566406 223.246094 182.433594 221.945312 183.816406 C 221.382812 184.871094 220.929688 186.324219 221.695312 187.570312 L 239.832031 187.570312 C 242.886719 187.570312 245.359375 185.097656 245.359375 182.042969 L 245.359375 163.898438 C 246.617188 163.128906 248.066406 163.589844 249.121094 164.152344 C 250.503906 165.449219 252.359375 166.246094 254.40625 166.246094 C 258.683594 166.246094 262.148438 162.777344 262.148438 158.496094 C 262.148438 154.222656 258.683594 150.753906 254.40625 150.753906 "/>
</g>
<path style=" stroke:none;fill-rule:nonzero;fill:rgb(23.139954%,39.219666%,57.249451%);fill-opacity:1;" d="M 166.371094 196.667969 C 166.371094 195.265625 166.003906 193.957031 165.355469 192.828125 C 165.101562 192.394531 164.816406 191.988281 164.492188 191.605469 C 163.875 190.542969 163.28125 188.964844 164.109375 187.617188 L 182.167969 187.617188 C 185.222656 187.617188 187.6875 185.132812 187.6875 182.085938 L 187.6875 163.792969 C 188.875 163.234375 190.191406 163.664062 191.175781 164.191406 C 192.558594 165.484375 194.417969 166.28125 196.460938 166.28125 C 200.742188 166.28125 204.207031 162.816406 204.207031 158.535156 C 204.207031 154.261719 200.742188 150.792969 196.460938 150.792969 C 195.0625 150.792969 193.761719 151.160156 192.628906 151.808594 C 192.191406 152.066406 191.785156 152.351562 191.410156 152.679688 C 190.410156 153.253906 188.972656 153.800781 187.6875 153.199219 L 187.6875 134.988281 C 187.6875 131.941406 185.222656 129.460938 182.167969 129.460938 L 164.109375 129.460938 C 163.28125 130.8125 163.875 132.394531 164.492188 133.453125 C 164.816406 133.828125 165.101562 134.242188 165.355469 134.679688 C 166.003906 135.808594 166.371094 137.117188 166.371094 138.515625 C 166.371094 142.789062 162.90625 146.257812 158.632812 146.257812 C 154.355469 146.257812 150.890625 142.789062 150.890625 138.515625 C 150.890625 136.460938 151.6875 134.605469 152.980469 133.21875 C 153.542969 132.167969 154.003906 130.714844 153.226562 129.460938 L 135.089844 129.460938 C 132.039062 129.460938 129.574219 131.941406 129.574219 134.988281 L 129.574219 153.058594 C 130.910156 153.886719 132.488281 153.296875 133.558594 152.679688 C 133.933594 152.351562 134.339844 152.066406 134.777344 151.808594 C 135.910156 151.160156 137.21875 150.792969 138.617188 150.792969 C 142.890625 150.792969 146.355469 154.261719 146.355469 158.535156 C 146.355469 162.816406 142.890625 166.28125 138.617188 166.28125 C 136.566406 166.28125 134.707031 165.484375 133.324219 164.191406 C 132.273438 163.628906 130.820312 163.167969 129.574219 163.941406 L 129.574219 182.085938 C 129.574219 185.132812 132.039062 187.617188 135.089844 187.617188 L 153.226562 187.617188 C 154.003906 188.867188 153.542969 190.316406 152.980469 191.371094 C 151.6875 192.753906 150.890625 194.621094 150.890625 196.667969 C 150.890625 200.945312 154.355469 204.414062 158.632812 204.414062 C 162.90625 204.414062 166.371094 200.945312 166.371094 196.667969 "/>
</g>
</svg>
